<?xml version="1.0" standalone="no"?>
<!DOCTYPE svg PUBLIC "-//W3C//DTD SVG 20010904//EN"
 "http://www.w3.org/TR/2001/REC-SVG-20010904/DTD/svg10.dtd">
<svg version="1.0" xmlns="http://www.w3.org/2000/svg"
 width="1192.000000pt" height="1192.000000pt" viewBox="0 0 1192.000000 1192.000000"
 preserveAspectRatio="xMidYMid meet">
<metadata>
Created by potrace 1.14, written by Peter Selinger 2001-2017
</metadata>
<g transform="translate(0.000000,1192.000000) scale(0.100000,-0.100000)"
fill="#000000" stroke="none">
<path d="M7579 11916 c-2 -2 -35 -6 -74 -10 -97 -9 -135 -14 -170 -20 -16 -4
-45 -9 -64 -12 -52 -9 -69 -12 -145 -30 -67 -15 -224 -59 -256 -71 -8 -3 -22
-7 -31 -9 -23 -5 -243 -90 -296 -114 -24 -11 -45 -20 -48 -20 -5 0 -199 -96
-305 -151 -30 -16 -77 -42 -105 -59 -27 -17 -58 -33 -67 -36 -10 -4 -18 -10
-18 -15 0 -5 -5 -9 -11 -9 -12 0 -55 -26 -224 -140 -143 -96 -169 -114 -185
-128 -8 -7 -44 -34 -80 -60 -36 -25 -67 -49 -70 -52 -3 -3 -25 -21 -50 -40
-25 -19 -61 -48 -81 -65 -20 -16 -56 -46 -80 -65 -23 -19 -54 -45 -68 -57 -14
-13 -38 -33 -52 -45 -118 -103 -191 -173 -393 -373 -127 -126 -251 -253 -276
-281 -112 -126 -186 -209 -200 -224 -8 -9 -32 -37 -53 -63 -21 -25 -43 -52
-50 -59 -12 -13 -89 -106 -117 -142 -8 -10 -23 -27 -32 -38 -10 -10 -18 -21
-18 -24 0 -3 -6 -11 -12 -18 -23 -23 -66 -79 -143 -181 -41 -55 -78 -104 -83
-110 -4 -5 -24 -32 -45 -60 -20 -27 -40 -55 -44 -60 -5 -6 -24 -33 -43 -60
-19 -28 -38 -51 -42 -53 -4 -2 -8 -8 -8 -13 0 -8 -57 -93 -83 -124 -5 -5 -51
-75 -103 -155 -51 -80 -98 -150 -104 -157 -5 -7 -10 -17 -10 -23 0 -5 -3 -10
-8 -10 -4 0 -14 -15 -22 -32 -7 -18 -21 -41 -30 -51 -9 -9 -23 -30 -31 -45 -7
-15 -25 -45 -39 -67 -43 -69 -49 -80 -59 -101 -5 -11 -23 -41 -40 -66 -17 -25
-31 -48 -31 -51 0 -3 -22 -44 -50 -92 -28 -48 -50 -90 -50 -95 0 -5 -6 -15
-12 -22 -7 -7 -24 -36 -37 -63 -14 -28 -30 -57 -37 -65 -7 -8 -14 -19 -15 -25
-1 -5 -53 -113 -114 -240 -144 -294 -195 -404 -195 -421 0 -8 -4 -14 -10 -14
-5 0 -10 -6 -10 -14 0 -7 -14 -44 -31 -82 -34 -75 -90 -209 -121 -289 -10 -27
-23 -59 -28 -70 -5 -11 -21 -51 -35 -90 -14 -38 -37 -97 -50 -130 -13 -33 -31
-82 -40 -110 -9 -27 -21 -59 -26 -70 -5 -11 -38 -105 -73 -210 -35 -104 -66
-197 -69 -205 -4 -8 -8 -26 -11 -40 -2 -14 -9 -38 -16 -55 -6 -16 -13 -37 -15
-45 -2 -9 -15 -55 -30 -102 -14 -48 -28 -95 -30 -105 -2 -10 -16 -61 -31 -113
-14 -52 -28 -103 -30 -112 -2 -10 -6 -26 -8 -36 -2 -9 -9 -37 -16 -62 -7 -25
-14 -53 -16 -62 -2 -10 -6 -28 -10 -41 -3 -12 -7 -33 -10 -47 -3 -14 -10 -43
-15 -65 -5 -22 -12 -53 -16 -70 -9 -48 -11 -60 -13 -60 -1 0 -3 -9 -5 -20 -2
-11 -7 -36 -11 -55 -4 -19 -9 -42 -10 -50 0 -8 -6 -40 -12 -70 -26 -128 -31
-154 -52 -295 -6 -44 -13 -91 -15 -105 -17 -103 -36 -260 -40 -325 -2 -22 -4
-40 -5 -40 -1 0 -3 -22 -5 -50 -1 -27 -6 -95 -11 -150 -11 -128 -11 -692 0
-810 5 -49 10 -112 11 -140 2 -27 4 -50 5 -50 1 0 3 -16 5 -35 2 -19 6 -53 10
-75 3 -22 8 -58 11 -80 3 -22 10 -57 15 -77 5 -20 9 -40 8 -45 -1 -4 0 -11 1
-15 4 -11 8 -32 24 -113 2 -11 12 -49 21 -85 9 -36 18 -69 19 -75 2 -5 9 -30
16 -55 7 -25 14 -49 16 -55 23 -100 158 -430 211 -517 13 -21 23 -44 23 -53 0
-8 4 -15 8 -15 5 0 14 -12 21 -27 14 -30 139 -224 150 -233 4 -3 14 -17 23
-31 60 -95 299 -341 424 -436 16 -13 47 -37 69 -54 230 -179 631 -371 910
-435 6 -1 40 -9 78 -18 37 -9 71 -15 75 -14 4 1 18 -2 32 -5 14 -4 41 -9 60
-11 19 -3 35 -5 35 -6 0 -12 470 -18 570 -7 70 7 139 17 175 23 14 3 41 7 59
10 57 8 276 62 343 84 35 12 70 23 78 25 22 5 160 55 195 70 17 8 59 26 95 40
68 29 324 153 375 183 17 9 62 35 100 56 86 48 349 218 353 228 2 5 10 8 18 8
8 0 14 5 14 10 0 6 6 10 14 10 8 0 16 3 18 8 2 4 37 32 78 62 138 100 417 325
526 425 218 198 561 540 691 691 10 12 38 44 63 71 67 75 152 174 248 290 15
18 38 46 52 62 14 16 34 41 45 57 11 15 35 43 52 63 18 20 33 39 33 43 0 4 6
13 13 20 7 7 71 90 140 183 70 94 135 179 143 190 8 11 23 32 32 48 9 15 20
27 24 27 4 0 8 6 8 13 0 8 9 22 20 32 11 10 20 24 20 31 0 7 4 14 9 16 13 5
346 509 406 615 8 15 24 42 35 58 11 17 25 42 31 58 6 15 14 27 19 27 4 0 11
8 14 18 3 9 12 26 19 37 22 37 104 179 137 240 18 33 44 80 58 105 67 118 220
429 215 434 -4 3 -1 6 5 6 5 0 18 21 28 48 10 26 24 55 32 65 8 9 12 17 7 17
-4 0 -3 6 3 12 5 7 35 72 67 143 31 72 63 144 70 160 8 17 26 59 41 95 14 36
31 76 37 90 6 14 11 27 12 30 8 24 27 68 35 82 6 10 10 23 10 29 0 6 6 25 14
42 15 35 51 127 61 157 3 9 17 45 30 80 8 19 19 53 26 75 6 22 14 45 18 50 3
6 6 15 7 20 2 6 15 44 29 85 15 41 28 80 29 85 2 11 80 257 99 315 6 19 12 40
12 45 1 6 11 42 23 80 18 62 41 140 48 170 3 12 59 237 80 320 8 33 17 69 19
80 2 11 8 45 14 75 10 51 13 65 26 123 3 12 9 47 15 77 6 30 12 66 15 80 3 14
12 68 21 120 8 52 18 106 20 120 3 14 7 45 9 70 2 25 6 54 8 65 6 27 18 112
22 161 2 21 6 68 10 104 3 36 8 85 10 110 14 143 19 296 19 540 0 283 -6 407
-30 620 -3 30 -6 67 -7 83 -1 15 -5 27 -8 27 -3 0 -5 9 -4 20 1 17 -12 99 -29
183 -3 15 -8 38 -11 52 -5 26 -11 55 -20 93 -3 12 -7 30 -9 40 -2 10 -11 42
-20 70 -8 29 -15 55 -15 57 1 12 -33 122 -45 150 -8 17 -17 41 -21 55 -26 94
-120 304 -201 450 -51 94 -165 270 -190 294 -8 9 -12 16 -8 16 4 0 1 6 -7 13
-9 6 -33 34 -55 62 -64 81 -123 143 -301 313 -13 12 -26 22 -29 22 -2 0 -30
21 -62 46 -111 89 -122 98 -157 113 -12 5 -27 16 -34 25 -7 9 -18 16 -23 16
-6 0 -22 8 -36 18 -15 11 -56 35 -92 54 -36 19 -76 41 -90 49 -14 7 -27 14
-30 14 -3 1 -39 17 -80 37 -41 19 -124 52 -185 73 -60 20 -117 40 -125 43 -8
3 -19 6 -25 7 -5 2 -30 8 -55 15 -52 14 -54 15 -100 23 -19 4 -48 10 -65 13
-49 10 -138 24 -175 29 -43 6 -466 15 -471 11z m26 -1776 c3 6 11 8 16 4 6 -3
39 -8 73 -9 178 -9 348 -41 506 -95 36 -12 70 -23 75 -25 9 -2 37 -14 125 -53
19 -8 38 -14 43 -14 4 1 7 -3 7 -8 0 -5 5 -10 11 -10 15 0 193 -101 197 -112
2 -4 10 -8 18 -8 8 0 14 -4 14 -10 0 -5 5 -10 11 -10 9 0 61 -35 96 -65 6 -5
24 -20 40 -32 100 -76 220 -199 337 -343 45 -56 142 -213 188 -304 48 -96 116
-255 123 -287 2 -9 11 -39 20 -65 9 -27 18 -56 20 -64 2 -8 4 -17 5 -20 1 -3
3 -9 5 -15 1 -5 3 -12 4 -15 2 -3 5 -18 7 -35 3 -16 9 -43 14 -60 8 -27 20
-89 34 -185 3 -19 7 -44 10 -55 4 -21 16 -146 22 -230 4 -66 4 -406 0 -470 -7
-98 -17 -210 -21 -240 -3 -16 -7 -51 -10 -77 -11 -105 -23 -182 -40 -268 -3
-14 -8 -40 -11 -59 -3 -18 -8 -43 -10 -55 -3 -11 -7 -30 -9 -41 -6 -33 -15
-74 -32 -144 -8 -36 -17 -75 -19 -86 -4 -21 -21 -87 -49 -190 -10 -33 -19 -67
-21 -75 -2 -8 -15 -53 -30 -100 -14 -47 -29 -97 -31 -112 -3 -16 -10 -28 -16
-28 -6 0 -8 -3 -4 -6 7 -8 -111 -352 -162 -466 -11 -27 -18 -48 -14 -48 3 0
-1 -7 -8 -16 -7 -9 -14 -21 -15 -28 -2 -11 -68 -170 -109 -261 -13 -27 -36
-79 -52 -115 -67 -148 -147 -310 -150 -306 -3 2 5 22 16 44 11 22 17 42 14 46
-4 3 -2 6 4 6 6 0 18 21 28 48 10 26 30 73 45 104 15 31 25 59 22 62 -3 4 -1
6 5 6 5 0 10 6 10 13 0 6 9 32 21 57 11 25 33 79 50 120 16 41 33 84 37 95 4
11 10 29 12 39 2 11 8 25 14 33 6 7 8 13 5 13 -4 0 -1 10 6 23 7 12 13 24 13
27 7 30 19 67 24 75 3 6 6 16 7 23 2 8 6 21 10 30 4 9 8 22 10 27 1 6 25 87
52 180 28 94 53 184 56 200 3 17 10 50 16 75 7 25 13 53 15 63 2 10 6 26 9 35
3 9 8 37 11 62 4 24 8 47 10 50 2 3 6 24 9 46 4 22 8 51 11 64 3 14 7 43 10
65 3 22 7 50 9 62 7 32 17 149 21 224 1 37 4 71 7 75 6 12 2 324 -6 409 -12
130 -22 208 -35 267 -6 24 -12 54 -14 68 -7 36 -36 151 -46 180 -5 14 -13 34
-17 45 -9 25 -14 40 -14 50 -2 21 -108 243 -155 324 -21 35 -80 126 -85 131
-3 3 -23 28 -45 55 -158 200 -385 387 -600 495 -39 19 -73 40 -77 45 -4 6 -8
7 -8 3 0 -4 -25 4 -54 17 -102 45 -269 94 -376 110 -20 3 -46 7 -59 10 -122
23 -383 23 -561 0 -148 -20 -463 -97 -555 -136 -16 -7 -34 -13 -40 -14 -5 0
-15 -4 -21 -7 -9 -6 -122 -51 -134 -53 -3 -1 -31 -13 -64 -28 -32 -15 -62 -27
-67 -27 -5 0 -9 -5 -9 -12 0 -6 -3 -9 -6 -5 -6 6 -244 -114 -316 -159 -21 -13
-42 -24 -48 -24 -5 0 -10 -4 -10 -10 0 -5 -6 -10 -14 -10 -8 0 -21 -6 -28 -13
-7 -8 -25 -20 -38 -27 -56 -29 -414 -271 -430 -290 -3 -3 -41 -33 -85 -65 -44
-33 -84 -64 -90 -70 -5 -6 -32 -29 -60 -50 -27 -22 -52 -42 -55 -45 -3 -3 -41
-36 -85 -74 -276 -237 -613 -575 -836 -839 -13 -16 -42 -49 -64 -74 -22 -25
-93 -114 -158 -197 -65 -83 -125 -159 -133 -169 -8 -9 -14 -22 -14 -27 0 -6
-3 -10 -7 -10 -5 0 -19 -17 -33 -38 -13 -20 -35 -50 -47 -67 -27 -35 -35 -46
-48 -67 -8 -14 -53 -81 -161 -242 -10 -16 -23 -36 -29 -45 -5 -9 -22 -35 -37
-58 -16 -23 -28 -46 -28 -52 0 -6 -4 -11 -10 -11 -5 0 -10 -4 -10 -9 0 -4 -31
-61 -70 -125 -38 -64 -70 -118 -70 -121 0 -3 -11 -22 -23 -43 -49 -77 -243
-455 -315 -612 -70 -155 -83 -183 -85 -194 -1 -6 -4 -13 -7 -16 -3 -3 -19 -39
-35 -80 -16 -41 -32 -79 -36 -85 -3 -5 -14 -35 -24 -65 -10 -30 -22 -61 -28
-67 -5 -7 -6 -13 -2 -13 4 0 2 -6 -4 -14 -36 -43 -234 -713 -256 -866 -2 -14
-9 -47 -15 -75 -7 -27 -14 -68 -17 -90 -3 -22 -10 -48 -15 -59 -8 -14 -7 -17
3 -11 7 5 10 4 6 -2 -7 -12 -15 -53 -23 -118 -3 -27 -7 -65 -10 -83 -16 -123
-23 -508 -10 -607 14 -107 20 -152 22 -175 1 -14 3 -25 4 -25 1 0 3 -11 5 -25
1 -14 5 -36 9 -50 7 -30 15 -68 20 -95 2 -11 12 -47 22 -80 10 -33 18 -62 19
-65 2 -11 29 -87 42 -117 7 -18 13 -35 13 -38 0 -8 114 -229 121 -235 3 -3 12
-16 19 -30 64 -123 345 -426 449 -484 9 -5 18 -12 21 -16 10 -13 99 -70 109
-70 6 0 11 -4 11 -8 0 -5 12 -14 26 -21 15 -6 24 -14 21 -17 -5 -5 -105 43
-117 56 -3 3 -30 21 -60 40 -30 19 -57 37 -60 40 -3 3 -32 25 -64 50 -241 183
-425 408 -562 689 -37 75 -70 144 -75 153 -5 10 -9 26 -9 36 0 10 -5 23 -10
28 -6 6 -12 19 -15 30 -2 10 -13 45 -24 77 -11 31 -17 57 -14 57 3 0 0 7 -7
15 -7 8 -10 15 -7 15 3 0 1 16 -5 36 -9 35 -11 44 -23 97 -7 33 -27 139 -30
162 -2 11 -6 43 -10 70 -4 28 -9 73 -11 100 -2 28 -6 75 -9 105 -6 66 -6 403
0 480 2 30 6 84 9 120 3 36 7 83 10 105 3 22 8 63 11 90 3 28 7 59 9 70 2 11
7 45 12 75 4 30 8 57 9 60 1 3 5 30 10 60 9 55 10 64 15 78 1 4 3 12 4 17 10
60 20 110 33 160 8 33 17 71 19 85 3 14 10 43 16 65 5 22 12 51 15 64 2 14 6
28 9 33 5 8 9 25 20 78 3 14 12 45 20 70 9 25 18 53 20 62 2 10 6 26 8 35 2
10 9 32 16 48 6 17 12 32 12 35 0 3 2 10 4 15 2 6 10 33 18 60 8 28 19 64 25
80 6 17 32 89 57 160 25 72 49 134 54 139 5 5 6 15 3 22 -3 8 1 14 8 14 7 0
10 3 7 6 -7 7 163 427 216 534 7 14 22 45 33 70 12 25 51 106 87 181 36 75 66
141 66 148 0 6 4 11 8 11 5 0 16 17 25 38 32 75 183 346 318 570 24 40 50 85
58 100 8 15 17 29 20 32 12 10 61 90 61 100 0 5 4 10 8 10 4 0 16 15 27 33 30
52 198 292 207 295 4 2 8 8 8 13 0 6 5 15 10 22 6 7 59 75 118 153 59 77 120
156 135 175 16 19 34 41 40 49 36 45 94 116 107 131 8 9 38 43 65 75 28 33 62
72 78 87 15 16 27 30 27 32 0 14 442 463 571 580 134 122 160 146 209 184 27
21 46 41 43 45 -4 3 -1 6 6 6 7 0 23 9 35 20 35 32 173 142 256 203 96 70 345
237 407 273 26 16 50 31 53 34 3 3 19 12 35 20 17 8 32 17 35 20 3 3 20 13 38
22 18 10 66 36 107 58 41 23 75 37 75 33 0 -4 4 -3 8 2 19 27 395 184 480 201
17 4 32 10 32 15 0 4 8 8 18 8 9 -1 59 11 110 25 51 15 107 28 125 30 18 3 32
6 32 7 0 1 9 3 20 4 11 1 47 7 80 13 102 19 145 23 248 27 55 2 102 7 105 10
3 2 11 0 18 -6 8 -7 14 -7 19 1z m-190 -2854 c160 -16 360 -81 504 -163 154
-89 335 -260 435 -411 69 -105 142 -251 153 -306 2 -11 8 -25 14 -33 6 -7 9
-13 5 -13 -3 0 -1 -12 5 -27 6 -16 13 -37 15 -48 12 -58 16 -78 30 -170 24
-156 22 -444 -5 -581 -4 -22 -7 -53 -7 -67 1 -15 -1 -27 -5 -27 -3 0 -6 -6 -6
-12 0 -7 -4 -31 -8 -53 -4 -22 -9 -49 -10 -60 -3 -16 -44 -163 -59 -210 -1 -5
-15 -36 -29 -69 -15 -32 -27 -60 -27 -61 0 -2 -25 -55 -55 -119 -30 -64 -55
-120 -56 -124 0 -4 -4 -11 -9 -17 -4 -5 -26 -44 -48 -85 -73 -138 -105 -195
-124 -222 -10 -14 -18 -29 -18 -32 0 -6 -92 -159 -101 -166 -3 -3 -16 -24 -29
-47 -13 -24 -27 -43 -32 -43 -4 0 -8 -6 -8 -13 0 -7 -9 -23 -20 -35 -12 -12
-17 -22 -13 -22 4 0 3 -4 -2 -8 -6 -4 -19 -20 -29 -37 -11 -16 -23 -34 -28
-40 -32 -41 -77 -105 -73 -105 3 0 -3 -9 -12 -19 -23 -25 -33 -38 -63 -80 -27
-38 -49 -67 -65 -85 -5 -6 -37 -45 -69 -86 -33 -41 -63 -77 -66 -80 -3 -3 -18
-21 -34 -40 -93 -115 -500 -531 -625 -640 -35 -30 -69 -59 -75 -65 -17 -16
-139 -119 -154 -130 -7 -5 -18 -14 -25 -20 -7 -5 -32 -26 -57 -46 -25 -20 -56
-46 -69 -58 -13 -11 -27 -21 -31 -21 -3 0 -15 -8 -26 -17 -10 -10 -37 -31 -59
-47 -22 -17 -42 -33 -45 -36 -3 -4 -16 -13 -29 -20 -14 -7 -30 -17 -35 -22
-30 -25 -136 -98 -136 -93 0 3 -9 -3 -20 -13 -11 -10 -33 -25 -48 -33 -15 -8
-29 -17 -32 -20 -24 -27 -469 -269 -496 -269 -8 0 -14 -4 -14 -8 0 -6 -50 -30
-80 -37 -3 -1 -18 -8 -35 -15 -16 -7 -33 -13 -37 -12 -5 1 -8 -3 -8 -10 0 -6
-3 -9 -6 -6 -3 4 -26 -3 -50 -14 -25 -10 -53 -21 -62 -23 -9 -2 -42 -12 -72
-23 -58 -22 -114 -39 -185 -55 -213 -51 -308 -62 -505 -61 -176 1 -234 6 -360
34 -30 7 -60 16 -66 21 -6 5 -13 7 -16 4 -3 -3 -13 4 -23 15 -10 11 -24 20
-32 20 -7 0 -13 4 -13 8 0 4 -13 16 -30 25 -40 24 -227 212 -245 248 -9 16
-20 29 -25 29 -6 0 -10 5 -10 11 0 6 -13 29 -28 52 -34 50 -114 207 -105 207
3 0 1 6 -4 13 -10 11 -33 76 -32 87 0 3 -7 21 -15 40 -8 19 -14 38 -14 43 -1
4 -5 31 -11 60 -6 28 -13 68 -15 87 -3 19 -8 49 -11 65 -10 46 -12 302 -4 386
8 82 18 161 25 199 3 14 7 39 9 55 6 36 10 56 25 115 6 25 12 54 14 65 1 11 6
30 10 42 4 12 9 32 12 45 5 22 12 50 13 56 1 1 1 3 1 5 0 1 18 54 40 117 22
63 42 122 44 130 12 44 67 180 123 310 19 44 189 384 211 424 10 16 54 93 100
170 45 77 82 143 82 148 0 4 5 8 10 8 6 0 10 7 10 15 0 8 5 15 10 15 6 0 10 7
10 15 0 8 5 15 10 15 6 0 10 5 10 11 0 6 11 25 25 43 14 18 25 36 25 40 0 4 5
12 10 19 9 10 80 109 122 170 38 55 180 240 197 258 9 9 23 26 31 39 16 24 33
45 87 105 19 22 58 66 87 99 69 79 348 359 419 421 32 28 75 65 95 84 20 18
71 61 112 94 41 34 77 64 80 67 19 22 394 290 406 290 3 0 10 5 17 10 24 20
102 70 110 70 5 0 21 8 35 19 64 44 298 163 423 214 83 35 254 95 294 104 11
2 25 5 30 6 6 2 16 6 23 11 7 4 16 5 19 2 3 -3 13 -1 22 3 9 5 32 12 51 15 19
3 47 8 63 11 70 13 86 15 152 21 39 3 71 7 73 8 3 4 197 -3 247 -8z m-3978
-6107 c21 -12 43 -25 49 -30 6 -5 13 -7 16 -4 3 3 11 -3 19 -12 13 -16 12 -17
-3 -4 -10 7 -18 10 -18 7 0 -4 -13 2 -28 13 -16 11 -40 23 -55 26 -15 4 -27
11 -27 16 0 13 5 12 47 -12z"/>
</g>
</svg>
