<svg id="Layer_19" data-name="Layer 19" xmlns="http://www.w3.org/2000/svg" viewBox="0 0 248.65 228.21"><defs><style>.cls-1,.cls-2{stroke:#2b673c;stroke-width:3px}.cls-1{fill:none;stroke-linecap:round;stroke-linejoin:round}.cls-2{fill:#fff;stroke-miterlimit:10}</style></defs><circle cx="114.14" cy="114.25" r="113.26" style="fill:#e1f5f0"/><path class="cls-2" d="M225.28 185.1h-59.62l-21.65 18.85-.19-18.85h-12.75c-11.56 0-20.93-9.37-20.93-20.93V97.21c0-11.56 9.37-20.93 20.93-20.93h94.21c11.56 0 20.93 9.37 20.93 20.93v66.96c0 11.56-9.37 20.93-20.93 20.93Z"/><path class="cls-2" d="M58.8 150.76h10.02l21.65 18.85.19-18.85h62.36c11.56 0 20.93-9.37 20.93-20.93V62.87c0-11.56-9.37-20.93-20.93-20.93H58.8c-11.56 0-20.93 9.37-20.93 20.93v66.96c0 11.56 9.37 20.93 20.93 20.93Z"/><path class="cls-1" d="M70.45 76.33h70.93M70.45 94.57h70.93M70.45 111.81h37.12"/></svg>