<?xml version="1.0" encoding="UTF-8"?>
<svg id="Layer_19" data-name="Layer 19" xmlns="http://www.w3.org/2000/svg" viewBox="0 0 228.61 228.37">
  <defs>
    <style>
      .cls-1 {
        fill: none;
      }

      .cls-1, .cls-2 {
        stroke: #2b673c;
        stroke-linecap: round;
        stroke-miterlimit: 10;
        stroke-width: 3px;
      }

      .cls-3, .cls-2 {
        fill: #fff;
      }

      .cls-4 {
        fill: #e1f5f0;
      }

      .cls-5 {
        fill: #2b673c;
      }
    </style>
  </defs>
  <circle className="cls-4" cx="114.56" cy="114.42" r="113.26"/>
  <path className="cls-2" d="M66.35,131.83h0c16.6,16.6,43.53,16.6,60.13,0h0c14.09-14.09,16.5-36.08,5.81-52.89L96.41,22.56l-35.87,56.38c-10.7,16.81-8.28,38.8,5.81,52.89Z"/>
  <path className="cls-2" d="M78.65,70.85l-7.2,11.32c-4.04,6.36-5.61,13.69-4.83,20.77"/>
  <g>
    <rect className="cls-4" x="115.25" y="83.96" width="42.03" height="116.67" rx="18.06" ry="18.06"/>
    <path className="cls-5" d="M139.22,85.46c9.13,0,16.56,7.43,16.56,16.56v80.55c0,9.13-7.43,16.56-16.56,16.56h-5.91c-9.13,0-16.56-7.43-16.56-16.56V102.02c0-9.13,7.43-16.56,16.56-16.56h5.91m0-3h-5.91c-10.8,0-19.56,8.76-19.56,19.56v80.55c0,10.8,8.76,19.56,19.56,19.56h5.91c10.8,0,19.56-8.76,19.56-19.56V102.02c0-10.8-8.76-19.56-19.56-19.56h0Z"/>
  </g>
  <g>
    <path className="cls-3" d="M115.25,108.06v-41.23h-2.15c-2.4,0-4.34-1.95-4.34-4.34s1.95-4.34,4.34-4.34h46.32c2.4,0,4.34,1.95,4.34,4.34s-1.95,4.34-4.34,4.34h-2.15v41.23h-42.03Z"/>
    <path className="cls-5" d="M159.42,59.65c1.57,0,2.84,1.28,2.84,2.84s-1.28,2.84-2.84,2.84h-3.64v41.23h-39.03v-41.23h-3.64c-1.57,0-2.84-1.28-2.84-2.84s1.28-2.84,2.84-2.84h46.32m0-3h-46.32c-3.23,0-5.84,2.62-5.84,5.84s2.62,5.84,5.84,5.84h.64v41.23h45.03v-41.23h.64c3.23,0,5.84-2.62,5.84-5.84s-2.62-5.84-5.84-5.84h0Z"/>
  </g>
  <line className="cls-1" x1="149.98" y1="83.29" x2="141.01" y2="83.29"/>
  <line className="cls-1" x1="149.98" y1="95.34" x2="137.08" y2="95.34"/>
  <line className="cls-1" x1="149.98" y1="119.43" x2="137.08" y2="119.43"/>
  <line className="cls-1" x1="149.98" y1="131.48" x2="141.01" y2="131.48"/>
  <line className="cls-1" x1="149.98" y1="143.53" x2="137.08" y2="143.53"/>
  <line className="cls-1" x1="149.98" y1="155.58" x2="141.01" y2="155.58"/>
</svg>