<?xml version="1.0" encoding="UTF-8"?>
<svg id="Layer_19" data-name="Layer 19" xmlns="http://www.w3.org/2000/svg" viewBox="0 0 217.97 220.96">
  <defs>
    <style>
      .cls-1 {
        fill: #fff;
      }

      .cls-2 {
        fill: #e1f5f0;
      }

      .cls-3 {
        fill: #2b673c;
      }
    </style>
  </defs>
  <rect class="cls-1" x=".82" y="28.87" width="191.43" height="191.43" rx="38.04" ry="38.04"/>
  <rect class="cls-2" x=".82" y="28.87" width="191.43" height="191.43" rx="38.04" ry="38.04"/>
  <path class="cls-3" d="M216.88,1.01h0c-4.86-5.35-41.94,24.04-80.21,72.23-16.01,20.16-31.72,41.69-42.55,56.89l-22.38-33c-5.3-7.81-16.03-9.87-23.84-4.57h0c-7.81,5.3-9.87,16.03-4.57,23.84l34.82,51.35c3.78,5.57,10.31,8.19,16.58,7.34,4.57-.45,8.96-2.69,11.95-6.6,0,0,14.92-23.57,43.31-72.35C195.11,18.64,220.91,5.23,216.88,1.01Z"/>
</svg>