<?xml version="1.0" encoding="UTF-8"?>
<svg id="Layer_19" data-name="Layer 19" xmlns="http://www.w3.org/2000/svg" viewBox="0 0 250.52 228.56">
  <defs>
    <style>
      .cls-1, .cls-2, .cls-3 {
        fill: none;
      }

      .cls-1, .cls-2, .cls-3, .cls-4 {
        stroke: #2b673c;
      }

      .cls-1, .cls-3 {
        stroke-width: 3.56px;
      }

      .cls-1, .cls-3, .cls-4 {
        stroke-linejoin: round;
      }

      .cls-1, .cls-4 {
        stroke-linecap: round;
      }

      .cls-2 {
        stroke-miterlimit: 10;
        stroke-width: 3px;
      }

      .cls-5, .cls-4 {
        fill: #fff;
      }

      .cls-6 {
        fill: #e1f5f0;
      }

      .cls-7 {
        fill: #2b673c;
      }

      .cls-4 {
        stroke-width: 3.05px;
      }
    </style>
  </defs>
  <circle className="cls-7" cx="225.17" cy="111.23" r="14.44"/>
  <circle className="cls-7" cx="227.33" cy="113.4" r="16.61"/>
  <g>
    <circle className="cls-5" cx="227.33" cy="110.51" r="16.61"/>
    <g>
      <circle className="cls-6" cx="113.89" cy="114.06" r="113.26"/>
      <circle className="cls-5" cx="114.11" cy="24.58" r="5.78"/>
      <circle className="cls-5" cx="154.54" cy="24.58" r="5.78"/>
      <path className="cls-5" d="M110.4,120.01c18.14,5.67,13.81,7.11,23.92,5.67,10.11-1.44,20.91-5.67,20.91-5.67l-5.35,9.33c-12.67,13.66-15.56,19-15.56,18.5s-24.55-26.5-24.55-26.5"/>
      <path className="cls-7" d="M134.32,129.34c-6.36,0-13.13-2.27-19.06-6.39-7.51-5.21-13.57-13.12-18.02-23.5-.68-1.58,.05-3.41,1.63-4.09,1.58-.68,3.41,.05,4.09,1.63,8.25,19.26,21.61,26.12,31.37,26.12s23.11-6.86,31.37-26.12c.68-1.58,2.5-2.31,4.09-1.63,1.58,.68,2.31,2.51,1.63,4.09-4.45,10.38-10.51,18.29-18.02,23.5-5.94,4.12-12.71,6.39-19.06,6.39Z"/>
      <path className="cls-7" d="M184.11,39.11c-1.72,0-3.11-1.39-3.11-3.11,0-6.45-9.16-8.94-14.38-9.28-2.26,1.98-7.73,6.16-13.7,6.16-4.55,0-9.26-3.49-9.26-9.33s4.71-9.33,9.26-9.33c6.08,0,11.65,4.35,13.82,6.27,8.43,.41,20.48,4.75,20.48,15.51,0,1.72-1.39,3.11-3.11,3.11Zm-31.19-18.67c-1.05,0-3.03,.65-3.03,3.11s1.98,3.11,3.03,3.11c2.63,0,5.54-1.59,7.68-3.11-2.14-1.52-5.05-3.11-7.68-3.11Z"/>
      <path className="cls-7" d="M84.54,39.11c-1.72,0-3.11-1.39-3.11-3.11,0-10.75,12.05-15.1,20.48-15.51,2.17-1.93,7.74-6.27,13.82-6.27,4.55,0,9.26,3.49,9.26,9.33s-4.71,9.33-9.26,9.33c-5.97,0-11.44-4.18-13.7-6.16-5.23,.33-14.38,2.82-14.38,9.28,0,1.72-1.39,3.11-3.11,3.11Zm23.52-15.56c2.14,1.52,5.05,3.11,7.68,3.11,1.05,0,3.03-.65,3.03-3.11s-1.98-3.11-3.03-3.11c-2.63,0-5.54,1.59-7.68,3.11Z"/>
      <path className="cls-7" d="M134.32,151.12c-.71,0-1.43-.24-2.01-.73-.82-.69-20.18-17.26-35.07-50.9-8.96-20.24-13.98-40.34-15.81-63.24-.14-1.71,1.14-3.21,2.85-3.35,1.72-.14,3.21,1.14,3.35,2.85,1.77,22.18,6.64,41.64,15.3,61.22,11.53,26.06,26.11,41.69,31.38,46.8,5.26-5.11,19.85-20.74,31.38-46.8,8.66-19.58,13.53-39.03,15.3-61.22,.14-1.71,1.63-2.99,3.35-2.85,1.71,.14,2.99,1.64,2.85,3.35-1.83,22.9-6.86,43-15.81,63.24-14.88,33.64-34.25,50.21-35.07,50.9-.58,.49-1.29,.73-2.01,.73Z"/>
      <path className="cls-7" d="M227.53,120.01c-5.15,0-9.33-4.19-9.33-9.33s4.19-9.33,9.33-9.33,9.33,4.19,9.33,9.33-4.19,9.33-9.33,9.33Zm0-12.45c-1.72,0-3.11,1.4-3.11,3.11s1.4,3.11,3.11,3.11,3.11-1.4,3.11-3.11-1.4-3.11-3.11-3.11Z"/>
      <path className="cls-7" d="M227.53,132.45c-12.01,0-21.78-9.77-21.78-21.78s9.77-21.78,21.78-21.78,21.78,9.77,21.78,21.78-9.77,21.78-21.78,21.78Zm0-37.34c-8.58,0-15.56,6.98-15.56,15.56s6.98,15.56,15.56,15.56,15.56-6.98,15.56-15.56-6.98-15.56-15.56-15.56Z"/>
      <path className="cls-7" d="M184.11,207.13c-29.17,0-52.89-23.73-52.89-52.89v-6.22c0-1.72,1.39-3.11,3.11-3.11s3.11,1.39,3.11,3.11v6.22c0,25.73,20.94,46.67,46.67,46.67,22.3,0,40.45-18.15,40.45-40.45v-43.56c0-1.72,1.39-3.11,3.11-3.11s3.11,1.39,3.11,3.11v43.56c0,25.73-20.94,46.67-46.67,46.67Z"/>
      <path className="cls-4" d="M75.58,173.34h-9.54l-14.31,14.31v-14.31h-14.31c-5.27,0-9.54-4.27-9.54-9.54v-42.92c0-5.27,4.27-9.54,9.54-9.54h52.46c5.27,0,9.54,4.27,9.54,9.54v43.66s-.86,8.87-8.58,8.87-15.26-.06-15.26-.06Z"/>
      <circle className="cls-3" cx="63.31" cy="160.56" r="1.39"/>
      <path className="cls-1" d="M52.17,134.1c0-7.01,6.47-12.51,13.77-10.84,4.03,.92,7.3,4.19,8.22,8.22,1.3,5.72-1.79,10.93-6.56,12.92-2.59,1.08-4.28,3.61-4.28,6.42h0"/>
      <path className="cls-2" d="M103.21,23.55s-18.32,.51-19.32,13.51c0,0,5.04,52.83,29.52,83.91l17.21,20.82c2.41,3.09,7.96,3.45,10.8,.75,5.41-5.14,12.15-15.03,21.54-32.03,0,0,18.83-33.85,21.33-74,.11-1.81-.32-3.64-1.31-5.16-1.83-2.8-5.91-6.6-14.85-7.81"/>
    </g>
  </g>
</svg>