<?xml version="1.0" encoding="UTF-8" standalone="no" ?>
<!DOCTYPE svg PUBLIC "-//W3C//DTD SVG 1.1//EN" "http://www.w3.org/Graphics/SVG/1.1/DTD/svg11.dtd">
<svg xmlns="http://www.w3.org/2000/svg" xmlns:xlink="http://www.w3.org/1999/xlink" version="1.1" width="1080" height="1080" viewBox="0 0 1080 1080" xml:space="preserve">
<desc>Created with Fabric.js 5.2.4</desc>
<defs>
</defs>
<g transform="matrix(1 0 0 1 540 540)" id="75aa5074-15d4-49e1-8d62-0264bd1a0b27"  >
<rect style="stroke: none; stroke-width: 1; stroke-dasharray: none; stroke-linecap: butt; stroke-dashoffset: 0; stroke-linejoin: miter; stroke-miterlimit: 4; fill: rgb(255,255,255); fill-rule: nonzero; opacity: 1; visibility: hidden;" vector-effect="non-scaling-stroke"  x="-540" y="-540" rx="0" ry="0" width="1080" height="1080" />
</g>
<g transform="matrix(1 0 0 1 540 540)" id="446de2a3-896a-4207-ae90-503980dec637"  >
</g>
<g transform="matrix(0 1.68 -1.68 0 540 540)"  >
<g style=""   >
		<g transform="matrix(1 0 0 1 0.03 0)" id="Path_604" clip-path="url(#CLIPPATH_3)"  >
<clipPath id="CLIPPATH_3" >
	<path transform="matrix(1 0 0 1 -0.03 0) translate(-321.6, 29.63)" id="Path_606" d="M 0 44.007 L 643.193 44.007 L 643.193 -103.27 L 0 -103.27 Z" stroke-linecap="round" />
</clipPath>
<path style="stroke: none; stroke-width: 1; stroke-dasharray: none; stroke-linecap: butt; stroke-dashoffset: 0; stroke-linejoin: miter; stroke-miterlimit: 4; fill: rgb(226,243,238); fill-rule: nonzero; opacity: 1;" vector-effect="non-scaling-stroke"  transform=" translate(-319.43, -71.5)" d="M 0 0 L 623.593 0 C 637.1769999999999 0 642.7289999999999 10.167 635.9929999999999 22.707 L 573.4799999999999 120.291 C 566.744 132.832 550.272 143 536.688 143 L 3.886 143 Z" stroke-linecap="round" />
</g>
		<g transform="matrix(1 0 0 1 0.03 0)" id="Path_605" clip-path="url(#CLIPPATH_4)"  >
<clipPath id="CLIPPATH_4" >
	<path transform="matrix(1 0 0 1 -0.03 0) translate(-321.6, 29.63)" id="Path_606" d="M 0 44.007 L 643.193 44.007 L 643.193 -103.27 L 0 -103.27 Z" stroke-linecap="round" />
</clipPath>
<path style="stroke: rgb(255,255,255); stroke-width: 10; stroke-dasharray: none; stroke-linecap: butt; stroke-dashoffset: 0; stroke-linejoin: miter; stroke-miterlimit: 4; fill: none; fill-rule: nonzero; opacity: 1;" vector-effect="non-scaling-stroke"  transform=" translate(-319.43, -71.5)" d="M 0 0 L 623.593 0 C 637.1769999999999 0 642.7289999999999 10.167 635.9929999999999 22.707 L 573.4799999999999 120.291 C 566.744 132.832 550.272 143 536.688 143 L 3.886 143 Z" stroke-linecap="round" />
</g>
</g>
</g>
</svg>