<?xml version="1.0" encoding="utf-8"?>
<!-- Generator: Adobe Illustrator 26.3.1, SVG Export Plug-In . SVG Version: 6.00 Build 0)  -->
<svg version="1.1" id="Layer_1" xmlns="http://www.w3.org/2000/svg" xmlns:xlink="http://www.w3.org/1999/xlink" x="0px" y="0px"
	 viewBox="0 0 296.5 170.3" style="enable-background:new 0 0 296.5 170.3;" xml:space="preserve">
<style type="text/css">
	.st0{fill:#113C63;}
	.st1{fill:#FEFEFF;}
	.st2{fill:#1A8BC6;}
</style>
<path class="st0" d="M151.2,1.4c1.7,0.3,3.3,0.6,5,0.9c15.7,3.3,27.5,16.1,29.6,32.1c2.6,20.5-11.6,39.3-31.9,42.3
	c-20.5,3-39.6-11-42.9-31.5C107.7,25,121.3,5.8,141.5,2.1c1.1-0.2,2.4-0.1,3.4-0.7C147.1,1.4,149.1,1.4,151.2,1.4L151.2,1.4z
	 M151.4,73.2c0,0,0.1,0,0.1,0c0,0,0,0,0.1,0C151.5,73.2,151.4,73.2,151.4,73.2c0.1-0.2,0-0.4,0-0.7c-1.6-4.2-1.5-8.4-0.4-12.6
	c0.6-2.1,1.5-4.1,2.1-6.2c1.4-5.6,0.6-11-1.4-16.3c-1.2-3.3-2.8-6.4-5.4-8.8c-0.7-0.6-1.4-1.2-2.5-1.3c2.6,2.6,3,5.8,2.7,9.1
	c-0.3,4.3-1.6,8.3-3.2,12.3c-2.1,5.2-1.9,10.3,0.6,15.4C145.8,67.7,148.3,70.7,151.4,73.2L151.4,73.2z"/>
<path class="st0" d="M83,102c0.1,5.8-0.1,11.3,0.1,16.8c0.1,1.3,0.7,2,2.1,2.2c0.1,0,0.2,0,0.4,0.1c0.4,0.1,0.7,0.1,0.7,0.6
	c-0.1,0.5-0.4,0.4-0.7,0.4c-1.9,0-3.8,0-5.6,0c-3.3,0-6.5,0-9.8,0c-0.4,0-1,0.3-1.1-0.4c-0.1-0.8,0.6-0.6,1-0.7
	c1.4-0.3,1.6-0.6,1.4-2c-0.4-2-1.4-3.9-2-5.8c-0.2-0.4-0.5-0.4-0.9-0.4c-2.3,0-4.5,0-6.8,0c-0.3,0-0.7,0-0.8,0.4
	c-0.6,1.9-1.5,3.7-2,5.6c-0.3,1.2,0.1,1.8,1.4,2.2c0.4,0.1,1,0,1,0.6c-0.1,0.7-0.7,0.4-1.1,0.4c-1.8,0-3.6,0-5.4,0
	c-0.3,0-0.8,0.2-0.8-0.4c0-0.5,0.3-0.6,0.7-0.6c1.4-0.2,2.1-1.3,2.7-2.5c1.5-2.9,2.6-5.9,3.7-8.9c1-2.8,2.3-5.5,3.1-8.3
	c0.3-1.1,1.2-2.1,1.9-3c0.6-0.7,1.1-0.4,1.3,0.5c1.9,5.8,4.3,11.3,6.5,17c0.4,1,0.9,2.1,1.3,3.1c0.9,2.1,2.5,2.7,4.8,2.1
	c1.1-0.3,1.8-1.2,1.8-2.8c0.1-5.5,0.1-10.9,0-16.4c0-1.6-0.9-2.3-2.9-2.6c-0.4-0.1-0.9,0.1-0.9-0.5c0-0.8,0.6-0.4,1-0.5
	c1.6,0,3.4-0.4,4.9,0.1c1.4,0.5,2.2,2.3,3.3,3.5c4.5,4.8,8.9,9.7,13.4,14.5c0,0,0.1,0,0.1,0.1c0.4-0.2,0.2-0.6,0.2-1
	c0-4.3,0-8.6,0-12.9c0-2.2-0.5-2.8-2.6-3.3c-0.4-0.1-0.8,0-0.7-0.6c0.1-0.6,0.6-0.3,0.8-0.3c2.2,0,4.3,0,6.5,0
	c0.3,0,0.8-0.2,0.8,0.4c0.1,0.5-0.3,0.5-0.7,0.6c-2.2,0.5-2.7,1.2-2.7,3.4c-0.1,6.2-0.3,12.4-0.5,18.6c0,0.3,0.2,0.8-0.3,0.9
	c-0.4,0.1-0.6-0.1-0.8-0.4c-4.5-5.6-9.8-10.4-14.4-15.9C85.2,104.6,84.2,103.4,83,102L83,102z M65.1,102c-1.2,3.3-2.4,6.3-3.6,9.5
	h7.3C67.5,108.4,66.3,105.3,65.1,102z"/>
<path class="st0" d="M217.1,98.1c0.3-0.3,0.4-0.7,0.6-1c0.2-0.4,0.4-0.8,0.7-1.1c0.6-0.7,1.5-0.6,2.2-0.4c0.7,0.3,0.1,1,0,1.4
	c-1.7,6.3-3.5,12.5-5.2,18.8c-0.2,0.7-0.7,1.6,0.1,2.1c0.7,0.4,1.4-0.3,2-0.8c0.6-0.6,1.2-1.2,1.7-1.8c0.4-0.5,0.7-0.4,1.2-0.1
	c0.6,0.4,0.1,0.7-0.1,0.9c-1.5,1.8-3,3.7-4.8,5.2c-1.1,0.9-2.2,1.6-3.7,1.5c-1.4,0-2-0.7-1.8-2.2c0.3-2.2,1.2-4.3,1.8-6.4
	c0.1-0.3,0.2-0.6,0.1-1c-1,1.2-2,2.5-3,3.7c-1.3,1.6-2.8,3.1-4.5,4.2c-0.8,0.6-1.7,1.1-2.6,1.3c-3.3,0.9-6.1-0.6-5.8-4.9
	c0.4-5.3,3-9.6,6.3-13.6c2-2.4,4.3-4.5,7-6.1c1-0.6,2.1-1,3.2-1.2C214.2,96.3,215,96.6,217.1,98.1L217.1,98.1z M214.8,102.8
	c0-2.5-1.6-3.8-3.6-3.3c-1.4,0.3-2.7,1-3.8,1.9c-3.4,2.8-5.6,6.4-6.9,10.6c-0.4,1.3-0.6,2.7-0.3,4.1c0.4,2.1,1.8,2.9,3.9,2.3
	c0.8-0.3,1.5-0.6,2.2-1.2c3.5-2.7,5.7-6.3,7.4-10.2C214.2,105.5,214.7,104,214.8,102.8L214.8,102.8z"/>
<path class="st0" d="M245.6,122.8c-4.4,0-7-2.4-7.3-6.6c-0.5-8.2,6.1-17.8,13.8-19.4c1.7-0.3,3.3-0.4,4.9,0.2
	c2.5,0.8,3.3,2.9,2.4,5.7c-0.6,2-1.9,3.5-3.6,4.6c-3.1,2.2-6.8,3.1-10.5,3.7c-2.2,0.3-2.2,0.3-2.4,2.4c0,0.4-0.1,0.7-0.1,1.1
	c-0.4,3.4,2.1,5.7,5.6,5.1c3.2-0.6,5.6-2.4,7.9-4.5c0.5-0.4,0.8-0.6,1.2,0c0.2,0.3,0.3,0.5,0,0.8c-3,3.2-6.3,6.1-10.9,6.8
	C246.1,122.9,245.7,122.8,245.6,122.8L245.6,122.8z M253.1,98.6c-1.4,0-2.4,0.5-3.3,1.3c-2.9,2.4-4.6,5.5-5.9,9
	c-0.4,1,0.2,0.9,0.8,0.8c3-0.4,5.7-1.3,8-3.4c1.6-1.4,2.4-3.2,2.5-5.4C255.2,99.3,254.4,98.6,253.1,98.6L253.1,98.6z"/>
<path class="st0" d="M158.3,98.1c2.2-0.1,5.1-0.1,7.9,1c3.1,1.3,4.6,4.2,3.4,7.1c-0.8,1.9-2.3,2.9-4.2,3.5c-0.9,0.3-0.9,0.5-0.4,1.2
	c1.8,2.7,3.6,5.3,5.4,8c0.7,1,1.4,1.9,2.7,2.1c0.3,0.1,0.6,0.2,0.5,0.6c-0.1,0.4-0.4,0.3-0.6,0.3c-1.1,0-2.2,0-3.4,0
	c-0.9,0-1.3-0.7-1.7-1.3c-1.9-3-3.9-6-5.8-9c-0.6-0.8-2.7-1.5-3.6-1c-0.3,0.2-0.2,0.5-0.2,0.7c0,2.4,0,4.8,0,7.2
	c0,1.8,0.4,2.2,2.4,2.6c0.3,0.1,0.9-0.2,0.9,0.5c-0.1,0.6-0.6,0.4-1,0.4c-2.6,0-5.3,0-7.9,0c-0.3,0-0.9,0.2-0.9-0.4
	c0-0.6,0.5-0.4,0.8-0.4c2-0.4,2.3-0.8,2.3-2.8c-0.1-5.7,0.2-11.4,0-17.1c-0.1-1.6-0.4-1.9-2-2.1c-0.3,0-0.7,0-0.7-0.4
	c0-0.6,0.4-0.5,0.7-0.5C154.6,98.1,156.1,98.1,158.3,98.1L158.3,98.1z M158.4,104.7c0,0.6,0,1.3,0,1.9c0,3,0,3.1,3,2.7
	c1.9-0.2,3.8-0.7,4.5-2.7c0.7-1.9,0.7-3.9-0.7-5.6c-1.4-1.7-3.3-2.1-5.4-1.9c-1,0.1-1.5,0.7-1.5,1.7
	C158.4,102.2,158.4,103.4,158.4,104.7L158.4,104.7z"/>
<path class="st0" d="M174.3,113.5c0.2-4.2,2.9-8.6,7.2-12.1c3.2-2.5,6.8-4.1,10.8-4.8c1.4-0.2,2.6,0.4,3.1,1.3
	c0.4,0.9,0.1,2.3-0.7,3.1c-0.8,0.8-2.1,1-3.3,0.3c-0.2-0.1-0.4-0.2-0.6-0.4c-2.2-1.4-3.7-1.4-5.7,0.3c-2.9,2.4-4.4,5.7-5.4,9.2
	c-0.5,1.7-0.9,3.4-0.6,5.3c0.6,3.2,3.7,4.1,5.9,3.7c3.5-0.6,6.1-2.9,8.4-5.3c0.6-0.7,0.9-0.3,1.2,0.2c0.2,0.2,0.1,0.4-0.1,0.6
	c-3.1,3.4-6.4,6.5-11.2,7.4C177.3,123.8,174.1,120.2,174.3,113.5L174.3,113.5z"/>
<path class="st0" d="M230.7,107.6c1.7-3,3.4-6,5.7-8.6c0.7-0.8,1.5-1.6,2.6-2.1c1.7-0.8,2.8-0.1,2.8,1.8c0,0.8-0.1,1.5-0.4,2.2
	c-0.6,1.6-1.3,2.1-2.9,1.7c-1.6-0.4-2.6,0.3-3.6,1.3c-1.9,2.1-3.1,4.7-4.1,7.2c-1.4,3.4-2.7,6.9-3.6,10.4c-0.2,0.7-0.4,1.2-1.2,1.2
	c-1,0-2,0.2-2.8-0.7c-0.3-0.3-0.1-0.8,0-1.2c1.5-5.2,3-10.5,4.5-15.8c0.2-0.8,0.5-1.6,0.4-2.5c-0.1-1.2-0.7-1.5-1.8-1.1
	c-1.4,0.6-2.2,1.8-3.2,2.8c-0.2,0.2-0.3,0.8-0.8,0.4c-0.4-0.3-0.7-0.7-0.2-1.3c1.6-2.1,3.3-4.2,5.5-5.8c0.7-0.5,1.5-1,2.4-1.1
	c1.7-0.2,2.7,0.8,2.5,2.5c-0.3,2.5-1.2,4.9-1.8,7.4c-0.1,0.3-0.1,0.6-0.2,0.9c-0.2,0.1-0.2,0.3-0.1,0.5
	C230.5,107.8,230.6,107.7,230.7,107.6L230.7,107.6z"/>
<path class="st0" d="M139.5,122c-3.1,0-6.1,0-9.2,0c-0.3,0-0.9,0.2-0.9-0.4c0-0.6,0.5-0.4,0.8-0.4c2.4-0.5,2.5-0.5,2.6-2.9
	c0.3-5.7,0.2-11.4,0.2-17.1c0-1.4-0.7-2-2.1-2.1c-0.3,0-0.6,0-0.8-0.1c-0.3,0-0.4-0.3-0.4-0.5c0-0.2,0.2-0.3,0.4-0.4
	c0.2,0,0.3,0,0.5,0c5.6,0,11.1,0,16.7,0c0.6,0,0.9,0.2,1,0.8c0.1,1,0.3,2.1,0.4,3.1c0,0.2,0.1,0.4-0.2,0.5c-0.2,0.1-0.4,0-0.6-0.1
	c-0.1-0.1-0.2-0.2-0.3-0.4c-2.7-3.7-6.6-3-10.4-2.7c-0.7,0.1-0.9,0.7-0.9,1.2c0,2.5,0,5,0,7.4c0,0.4-0.1,0.7,0.5,0.7
	c1.6,0,3.2,0,4.8-0.1c1.5-0.1,2.1-1.1,2.4-2.4c0.1-0.4,0.1-0.9,0.7-0.8c0.6,0.1,0.4,0.6,0.4,0.9c0,2.2,0,4.4,0,6.6
	c0,0.3,0.1,0.8-0.4,0.8c-0.6,0.1-0.6-0.3-0.7-0.7c-0.5-2.4-1.1-2.9-3.6-2.9c-1.1,0-2.2,0-3.2,0c-0.6,0-0.9,0.1-0.9,0.8
	c0,2.8,0,5.6,0,8.4c0,0.9,0.4,1.5,1.3,1.6c2.6,0.1,5.2,0.1,7.8,0c1.9-0.1,3-1.6,4-3.1c0.4-0.5,0.5-1.7,1.4-1.4
	c0.7,0.3-0.1,1.2-0.2,1.9c-0.1,0.9-0.4,1.9-0.5,2.8c-0.1,0.8-0.4,1-1.2,1C145.8,122,142.6,122,139.5,122L139.5,122z"/>
<path class="st0" d="M43.9,97.9c3.3,0,6,0.8,8.5,2.1c0.7,0.4,1.1,0.9,1,1.7c-0.1,1-0.1,2.1-0.1,3.1c0,0.3,0.1,0.7-0.4,0.7
	c-0.4,0.1-0.5-0.3-0.6-0.6c-0.3-0.8-0.6-1.6-1.1-2.3c-1.7-2.7-4.1-4.1-7.3-4c-3.2,0.1-5.4,1.8-6.7,4.6c-1.9,4-2,8.2-0.4,12.4
	c1.3,3.3,3.9,5.3,7.5,5.6c3.7,0.3,6.2-1.7,8.1-4.7c0.3-0.5,0.3-1.7,1.2-1.4c0.7,0.3,0.1,1.2,0.2,1.9c0.1,2.2-1.3,3.1-3,3.8
	c-4.2,1.8-8.5,1.9-12.7-0.1c-4-2-6-5.4-6.2-9.8c-0.3-5.7,2.7-10.4,7.5-12.3C40.9,98.1,42.6,97.8,43.9,97.9z"/>
<path class="st0" d="M118.3,122.1c-5.9,0-10.5-2.9-12-8c-2.5-8.2,3.3-17.9,14-16.3c2.1,0.3,4.2,0.9,6.1,2c0.6,0.4,1,0.8,0.9,1.6
	c-0.1,1,0,2-0.1,3c0,0.3,0.1,0.8-0.4,0.8c-0.5,0.1-0.6-0.3-0.7-0.6c-0.3-0.7-0.6-1.3-0.9-1.9c-1.7-3-4.3-4.4-7.8-4.1
	c-3,0.2-5.1,1.9-6.3,4.6c-1.9,4.2-2.1,8.6-0.2,12.8c1.4,3.1,3.9,5,7.4,5.2c3.8,0.2,6.2-1.7,8-4.8c0.3-0.5,0.3-1.6,1.1-1.3
	c0.7,0.3,0.1,1.2,0.2,1.8c0.1,2.2-1.3,3.2-3.1,4C122.5,121.7,120.4,122.2,118.3,122.1z"/>
<path class="st0" d="M265.1,93.3c1.8,0,3.1,1.4,3.1,3.2c0,1.8-1.4,3.2-3.2,3.2c-1.8,0-3.3-1.5-3.3-3.2
	C261.8,94.6,263.2,93.3,265.1,93.3z M263.6,94.7c0.7,0,1.3,0,1.9,0.1c0.7,0.1,1.1,0.7,0.7,1.2c-0.9,1.2,0.2,1.5,0.7,2.2
	c1-1.4,0.7-2.9-0.5-3.8c-1.1-0.8-2.5-0.5-3.3,0.5c-0.9,1.2-0.8,2.8,0.3,3.7c1,0.9,2.4,0.8,3.3-0.3c-0.4-0.2-0.9,0.1-1.2-0.4
	c-0.2-0.4-0.5-0.8-0.8-1.3c-0.2,0.8-0.3,1.2,0.2,1.7c-0.6,0-1,0.1-1.1,0.1C263.8,96.9,264.1,95.9,263.6,94.7z M264.9,95
	c-0.5,0.1-0.2,0.6-0.2,0.8c0,0.2-0.1,0.6,0.3,0.6c0.4-0.1,0.6-0.4,0.6-0.8C265.5,95.3,265.3,95,264.9,95L264.9,95z"/>
<path class="st1" d="M151.4,73.2c-3.1-2.5-5.6-5.5-7.4-9.1c-2.5-5-2.8-10.2-0.6-15.4c1.6-4,2.9-8,3.2-12.3c0.2-3.3-0.1-6.5-2.7-9.1
	c1.1,0.1,1.9,0.7,2.5,1.3c2.6,2.4,4.2,5.5,5.4,8.8c1.9,5.3,2.8,10.7,1.4,16.3c-0.5,2.1-1.5,4.1-2.1,6.2c-1.1,4.2-1.2,8.4,0.4,12.6
	C151.4,72.8,151.5,73,151.4,73.2L151.4,73.2L151.4,73.2z"/>
<path class="st1" d="M151.4,73.2c0.1,0,0.1,0,0.2,0c0,0,0,0-0.1,0C151.5,73.3,151.4,73.2,151.4,73.2L151.4,73.2L151.4,73.2z"/>
<path class="st1" d="M65.1,102c1.3,3.3,2.5,6.4,3.7,9.5h-7.3C62.6,108.4,63.8,105.3,65.1,102z"/>
<path class="st1" d="M214.8,102.8c-0.1,1.2-0.6,2.7-1.2,4.2c-1.7,3.9-3.9,7.6-7.4,10.2c-0.7,0.5-1.4,0.9-2.2,1.2
	c-2,0.7-3.4-0.2-3.9-2.3c-0.3-1.4-0.1-2.8,0.3-4.1c1.3-4.2,3.5-7.8,6.9-10.6c1.1-0.9,2.4-1.6,3.8-1.9
	C213.2,99,214.8,100.3,214.8,102.8L214.8,102.8z"/>
<path class="st1" d="M253.1,98.6c1.3,0,2.1,0.8,2.1,2.3c0,2.2-0.9,4-2.5,5.4c-2.3,2-5.1,2.9-8,3.4c-0.6,0.1-1.2,0.2-0.8-0.8
	c1.3-3.4,3.1-6.6,5.9-9C250.7,99.1,251.7,98.6,253.1,98.6L253.1,98.6z"/>
<path class="st1" d="M158.4,104.7c0-1.3,0-2.6,0-3.8c0-1,0.4-1.6,1.5-1.7c2.1-0.2,4,0.2,5.4,1.9c1.4,1.7,1.4,3.6,0.7,5.6
	c-0.7,2.1-2.6,2.6-4.5,2.7c-3,0.3-3,0.2-3-2.7C158.4,106,158.4,105.4,158.4,104.7L158.4,104.7z"/>
<path class="st1" d="M230.7,107.6c-0.1,0.1-0.2,0.2-0.3,0.3c-0.1-0.2-0.1-0.3,0.1-0.5C230.6,107.5,230.6,107.6,230.7,107.6
	L230.7,107.6z"/>
<g>
	<path class="st2" d="M1.1,156.4c0.4-0.3,0.3-0.8,0.4-1.2c1-3.3,3.6-5.2,6.7-5c3.5,0.3,5.9,2.6,6.2,6.1c0.1,1.6,0.2,3.3-0.4,4.9
		c-1,2.9-3.3,4.5-6.4,4.5c-2.9-0.1-5.2-1.9-6.1-4.7c-0.2-0.5-0.1-1.1-0.5-1.5L1.1,156.4L1.1,156.4z M12,157.9c0-0.5-0.1-1-0.1-1.6
		c-0.4-2.2-1.8-3.6-3.8-3.7c-1.8-0.1-3.4,1.1-4,3.1c-0.5,1.7-0.5,3.5,0.2,5.2c0.6,1.5,1.8,2.4,3.5,2.5c1.7,0.1,2.9-0.7,3.6-2.2
		C11.9,160.1,12,159,12,157.9L12,157.9z"/>
	<path class="st2" d="M170.4,158.1c0,2.2-0.1,4.3,0,6.5c0,1.1-0.6,0.9-1.3,0.9c-0.6,0-1.4,0.2-1.4-0.9c0.1-1.6,0-3.2,0-4.8
		c0-0.7-0.2-0.9-0.9-0.9c-1.6,0-3.3,0-4.9,0c-0.6,0-0.8,0.2-0.8,0.8c0,1.6-0.1,3.2,0,4.8c0.1,1.1-0.6,1-1.3,1c-0.7,0-1.3,0.2-1.3-1
		c0.1-4.3,0.1-8.6,0-12.9c0-1.1,0.7-0.9,1.3-0.9c0.7,0,1.4-0.2,1.3,1c-0.1,1.3,0,2.6,0,3.9c0,0.8,0.2,1,1,0.9c1.6-0.1,3.1-0.1,4.7,0
		c0.8,0,1-0.3,1-1c-0.1-1.3,0-2.6,0-3.9c-0.1-1.2,0.8-0.8,1.4-0.9c0.6,0,1.3-0.2,1.2,0.9C170.4,153.7,170.4,155.9,170.4,158.1
		L170.4,158.1z"/>
	<path class="st2" d="M248.3,158.1c0-2.2,0.1-4.4,0-6.6c0-1.1,0.6-0.9,1.2-0.9c0.6,0,1.3-0.2,1.3,0.9c-0.1,1.4,0,2.8,0,4.2
		c0,0.6,0.2,0.8,0.8,0.8c1.7,0,3.4,0,5.1,0c0.7,0,0.8-0.3,0.8-0.9c0-1.4,0-2.8,0-4.2c0-1.2,0.8-0.8,1.3-0.8c0.5,0,1.3-0.3,1.3,0.8
		c0,4.4,0,8.8,0,13.2c0,1.2-0.9,0.8-1.5,0.8c-0.6,0.1-1.2,0.2-1.2-0.8c0.1-1.6,0-3.2,0-4.8c0-0.7-0.1-1-0.9-1c-1.6,0.1-3.3,0-4.9,0
		c-0.7,0-0.9,0.2-0.9,0.9c0,1.6,0,3.2,0,4.8c0.1,1.1-0.6,0.9-1.2,0.9c-0.6,0-1.3,0.2-1.3-0.9C248.3,162.4,248.3,160.3,248.3,158.1
		L248.3,158.1z"/>
	<path class="st2" d="M64.2,156.2c1.2-0.5,2.4-0.9,3.7-0.6c2.2,0.4,3.5,1.7,3.9,4c0.4,2.3-0.6,4.5-2.5,5.5c-2.3,1.2-5.8,0.8-7.8-0.9
		c-0.4-0.4-0.7-0.7-0.1-1.1c0.5-0.3,0.6-1.5,1.6-0.7c1.1,0.9,2.3,1.3,3.6,1.2c1.6-0.1,2.6-1.2,2.6-2.8c0.1-1.7-0.8-2.8-2.4-3
		c-1.1-0.1-2.1,0.1-2.9,0.9c-0.6,0.6-1.1,0.4-1.7,0.2c-0.8-0.2-0.5-0.8-0.4-1.3c0.1-2,0.3-4,0.4-6c0-0.6,0.2-0.8,0.8-0.8
		c2.3,0,4.6,0,6.9,0c0.4,0,1,0,0.8,0.6c-0.2,0.6,0.4,1.6-0.9,1.6c-1.6,0-3.2,0-4.8,0c-0.7,0-1,0.2-0.9,0.9
		C64.2,154.5,64,155.3,64.2,156.2c0,0-0.1,0-0.1,0.1C64.1,156.3,64.1,156.3,64.2,156.2C64.2,156.2,64.2,156.2,64.2,156.2L64.2,156.2
		z"/>
	<path class="st2" d="M277.5,164.6c0,1.4,0,2.6,0,3.9c0.1,1.2-0.8,0.9-1.4,0.9c-0.6,0-1.2,0.2-1.2-0.9c0.1-4.3,0-8.6,0-12.8
		c0-0.3-0.2-1,0.4-0.9c0.7,0.1,1.7-0.6,2.1,0.4c0.3,0.7,0.4,0.4,0.8,0.2c3-1.8,5.8-0.6,6.6,2.8c0.3,1.2,0.3,2.4,0.1,3.6
		c-0.7,3.6-3.7,4.9-6.8,3.2C277.9,164.8,277.8,164.7,277.5,164.6L277.5,164.6z M277.4,159.9c0,0.6,0,0.9,0,1.1
		c0,1.5,0.8,2.4,2.3,2.6c1.5,0.1,2.4-0.6,2.6-2.2c0.2-0.9,0.1-1.8-0.1-2.7c-0.4-1.6-1.8-2.3-3.3-1.8
		C277.3,157.5,277.3,158.8,277.4,159.9L277.4,159.9z"/>
	<path class="st2" d="M237.7,164.2c-0.9,0.7-1.6,1.2-2.6,1.3c-2.5,0.3-4.2-0.9-4.8-3.3c-0.3-1.4-0.3-2.8,0-4.2
		c0.7-3.1,3.9-4.5,6.6-2.9c0.2,0.1,0.4,0.2,0.8,0.4c0-1.4,0.1-2.6,0-3.8c-0.1-1,0.2-1.3,1.2-1.3c1.1,0,1.3,0.4,1.3,1.4
		c-0.1,3.6,0,7.1,0,10.7c0,0.5,0.1,1,0.1,1.4c-0.1,0.5,0.7,1.4-0.4,1.4C239,165.4,237.8,166.1,237.7,164.2L237.7,164.2z
		 M237.7,160.1c0-0.3,0-0.6,0-0.8c0-1.5-0.8-2.4-2.2-2.5c-1.3-0.1-2.4,0.6-2.7,2c-0.2,1-0.2,2.1,0.1,3.1c0.4,1.5,1.6,2.1,3.1,1.7
		C237.4,163,237.7,162.4,237.7,160.1L237.7,160.1z"/>
	<path class="st2" d="M192.7,164.5c0,1.5-0.1,2.8,0,4.1c0.1,1-0.6,0.9-1.1,0.8c-0.6,0-1.4,0.3-1.4-0.9c0-4.2,0-8.4,0-12.6
		c0-0.5-0.3-1.3,0.8-1.2c0.7,0.1,1.9-0.6,1.7,1.2c1.2-0.9,2.3-1.5,3.7-1.4c1.8,0.2,3.1,1.4,3.6,3.5c0.3,1.3,0.3,2.7,0,4
		c-0.7,3.2-3.9,4.5-6.7,2.8C193.2,164.8,193,164.7,192.7,164.5L192.7,164.5z M192.7,160.3c0.2,0.8-0.4,2,0.7,2.7c1,0.6,2,0.9,3,0.3
		c1.5-0.9,1.3-2.4,1.2-3.9c-0.1-1.1-0.5-2.2-1.8-2.6c-0.4-0.1-0.8-0.1-1.3,0C193,157.3,192.7,157.7,192.7,160.3z"/>
	<path class="st2" d="M105.5,164.4c-1.1,0.8-2.3,1.2-3.7,1.2c-1.5-0.1-2.5-0.6-2.9-1.7c-0.5-1.3-0.1-2.6,1-3.6
		c1.3-1.1,2.9-1.4,4.5-1.8c0.5-0.1,1.2,0.1,1.2-0.8c-0.1-0.8-0.6-1.1-1.3-1.1c-1.2-0.1-2.3,0.3-3.2,1c-0.9,0.6-1.1-0.1-1.4-0.6
		c-0.6-0.6-0.2-0.9,0.3-1.2c1.5-1,3.1-1.4,4.9-1.4c2.2,0.1,3.2,1.1,3.4,3.3c0,0.4,0,0.8,0,1.2c0,1.6,0.1,3.3,0,4.9
		c0,0.5,0.7,1.2-0.2,1.5C106.9,165.8,106,165.4,105.5,164.4L105.5,164.4z M105.6,161.3c-0.1-0.2,0.5-1.1-0.5-1
		c-1.1,0.1-2.2,0.4-3.1,1c-0.8,0.6-0.9,1.6-0.2,2c0.9,0.6,1.9,0.3,2.8-0.1C105.4,162.9,105.9,162.4,105.6,161.3L105.6,161.3z"/>
	<path class="st2" d="M213.4,164.4c-1.1,0.9-2.4,1.3-3.8,1.2c-1.3,0-2.3-0.4-2.8-1.7c-0.5-1.2-0.1-2.6,0.9-3.5
		c1.3-1.2,2.9-1.5,4.6-1.8c0.5-0.1,1.3,0.2,1.2-0.7c0-0.8-0.6-1.1-1.4-1.2c-1.2-0.1-2.3,0.3-3.2,1c-0.9,0.7-1-0.3-1.4-0.6
		c-0.5-0.5-0.2-0.8,0.3-1.1c1.6-1.1,3.4-1.6,5.3-1.3c2,0.3,2.9,1.4,3,3.5c0.1,1.9,0,3.8,0.1,5.8c0,0,0,0.1,0,0.1
		c-0.3,0.5,0.7,1.2-0.3,1.5C214.6,165.8,213.9,165.5,213.4,164.4L213.4,164.4z M213.5,161.2c-0.1-0.2,0.5-1-0.5-0.9
		c-1.2,0.1-2.4,0.4-3.3,1.2c-0.7,0.6-0.7,1.6,0,1.9c1,0.5,1.9,0.2,2.9-0.2C213.3,162.8,213.8,162.3,213.5,161.2L213.5,161.2z"/>
	<path class="st2" d="M179,161c-0.9,0-1.8,0-2.8,0c-1-0.1-1,0.4-0.7,1.1c0.7,1.7,3,2.2,4.8,1c0.3-0.2,0.6-0.8,1.2-0.2
		c0.9,0.9,1,1.1-0.1,1.9c-1.8,1.3-4.6,1.4-6.4,0.3c-1.8-1.1-2.6-3.6-2.1-6.2c0.5-2.3,1.9-3.7,4.3-4.1c3.2-0.5,6.2,2.8,5.4,5.9
		c-0.1,0.5-0.4,0.4-0.7,0.4C180.9,161,180,161,179,161L179,161z M177.7,159.1c0.6,0,1.1,0,1.7,0c1,0.1,1-0.4,0.7-1.1
		c-0.4-0.8-1-1.3-1.9-1.4c-1-0.1-1.8,0.3-2.3,1.2c-0.6,1-0.5,1.2,0.7,1.2C176.9,159.1,177.3,159.1,177.7,159.1L177.7,159.1z"/>
	<path class="st2" d="M292.6,161c-0.9,0-1.8,0-2.8,0c-0.8,0-0.9,0.3-0.6,0.9c0.6,1.8,3,2.4,4.9,1.1c0.4-0.3,0.7-0.6,1.2-0.1
		c0.9,0.9,0.9,1-0.1,1.8c-1.9,1.4-4.7,1.5-6.5,0.2c-2.1-1.5-2.4-3.7-2-6.1c0.4-2.2,1.8-3.6,4-4.1c3.6-0.7,5.9,2,5.6,5.8
		c0,0.6-0.5,0.5-0.8,0.5C294.5,161,293.6,161,292.6,161L292.6,161z M289.1,159.1c1.4,0,2.6,0,3.9,0c1,0,1-0.4,0.7-1.1
		c-0.5-1-1.2-1.4-2.3-1.3C290.2,156.7,289.5,157.4,289.1,159.1L289.1,159.1z"/>
	<path class="st2" d="M32.2,161c-0.9,0-1.8,0-2.8,0c-0.8,0-0.8,0.3-0.6,0.9c0.6,1.8,3,2.4,4.9,1.1c0.4-0.3,0.7-0.6,1.2-0.1
		c0.9,0.9,0.9,1-0.2,1.8c-1.9,1.4-4.7,1.5-6.5,0.2c-2.1-1.5-2.4-3.7-2-6.1c0.4-2.2,1.8-3.7,4-4.1c3.8-0.7,5.9,2.2,5.6,5.8
		c0,0.5-0.3,0.5-0.7,0.5C34.2,161,33.2,161,32.2,161L32.2,161z M28.8,159.1c1.4,0,2.7,0,4,0c0.8,0,0.8-0.4,0.6-0.9
		c-0.3-1-1.2-1.6-2.4-1.5C29.7,156.8,29,157.5,28.8,159.1L28.8,159.1z"/>
	<path class="st2" d="M93.8,161c-1,0-1.9,0-2.9,0c-0.7,0-0.7,0.2-0.6,0.8c0.6,1.9,3,2.5,5,1.2c0.4-0.3,0.6-0.7,1.2-0.1
		c0.9,0.9,0.9,1-0.1,1.8c-1.9,1.3-4.6,1.5-6.4,0.3c-1.8-1.1-2.6-3.4-2.1-6.2c0.4-2.2,1.8-3.7,4-4.1c3.8-0.7,5.9,2.2,5.6,5.8
		c0,0.6-0.4,0.5-0.8,0.5C95.8,161,94.8,161,93.8,161L93.8,161z M92.7,159.1c0.5,0,1,0,1.6,0c1,0.1,0.9-0.4,0.7-1.1
		c-0.3-0.8-0.9-1.2-1.7-1.3c-1-0.1-1.8,0.2-2.4,1c-0.3,0.4-0.6,0.8-0.4,1.2c0.2,0.4,0.7,0.1,1.1,0.2C91.9,159.1,92.3,159,92.7,159.1
		L92.7,159.1z"/>
	<path class="st2" d="M221.2,156c1.1-0.9,2.2-1.4,3.4-1.5c2.1-0.2,3.5,1,3.5,3.1c0,2.3,0,4.6,0,6.9c0,1.2-0.8,0.8-1.4,0.9
		c-0.6,0-1.3,0.2-1.2-0.9c0.1-2,0-4,0-6c0-1.6-0.8-2.1-2.3-1.7c-1.6,0.5-2,1-2,2.6c0,1.7-0.1,3.4,0,5.1c0,1-0.6,0.9-1.2,0.8
		c-0.6-0.1-1.5,0.5-1.4-0.8c0-3,0-6.1,0-9.1c0-0.6,0.2-0.9,0.8-0.8C220.2,154.9,221.5,154.1,221.2,156L221.2,156z"/>
	<path class="st2" d="M144,160.2c0,3.3-2.2,5.6-5.3,5.5s-5.2-2.4-5.1-5.7c0.1-3.4,2.2-5.5,5.4-5.5C142,154.6,144,156.8,144,160.2z
		 M141.4,159.9c0-0.5,0-1.2-0.4-1.8c-0.5-0.9-1.3-1.4-2.3-1.4c-1.1,0-1.9,0.6-2.3,1.6c-0.4,1.2-0.5,2.5,0.1,3.7
		c0.5,1.2,1.8,1.8,3.1,1.4S141.4,162,141.4,159.9z"/>
	<path class="st2" d="M272.8,160.1c0,3.4-2.1,5.6-5.2,5.6c-3.2,0-5.2-2.2-5.2-5.6c0-3.4,2-5.6,5.2-5.6
		C270.8,154.6,272.8,156.8,272.8,160.1z M270.3,159.9c0-0.1,0-0.5-0.1-0.8c-0.3-1.5-1.2-2.4-2.5-2.4c-1.3,0-2.2,0.9-2.6,2.4
		c-0.2,0.9-0.1,1.8,0.1,2.6c0.3,0.9,0.8,1.5,1.7,1.8C268.8,164,270.3,162.6,270.3,159.9L270.3,159.9z"/>
	<path class="st2" d="M83.2,156.8c0.9-1.6,1.8-3,2.6-4.4c0.8-1.3,1.9-1.9,3.4-1.7c0.1,0.4-0.2,0.7-0.3,1c-0.5,0.8-0.9,1.7-1.5,2.4
		c-2.3,3-3.5,6.4-2.9,10.2c0.2,1.2-0.6,1.1-1.4,1.1c-0.9,0.1-1.4-0.1-1.2-1.1c0.5-3.6-0.4-6.9-2.7-9.8c-0.8-1-1.3-2.1-1.9-3.2
		c-0.3-0.5-0.2-0.7,0.4-0.7c1.2-0.1,2.2,0,2.8,1.4C81.2,153.6,82.2,155.1,83.2,156.8L83.2,156.8z"/>
	<path class="st2" d="M122.7,154.6c1,0.1,2.3,0.3,3.4,1.1c0.4,0.3,0.8,0.6,0.3,1c-0.4,0.4-0.4,1.4-1.4,0.8c-0.8-0.5-1.6-0.8-2.5-0.8
		c-0.7,0-1.6-0.1-1.7,0.9c-0.1,0.9,0.7,1.1,1.4,1.2c0.8,0.2,1.6,0.4,2.4,0.6c1.7,0.5,2.6,1.6,2.5,3.1c-0.1,1.5-1,2.6-2.7,3.1
		c-2,0.5-3.9,0.2-5.7-0.9c-0.3-0.2-1.1-0.4-0.5-1c0.4-0.4,0.5-1.6,1.6-0.8c1.1,0.8,2.3,1,3.7,0.8c0.6-0.1,1.1-0.3,1.2-1
		c0.1-0.6-0.4-0.9-0.9-1.1c-0.7-0.2-1.5-0.4-2.2-0.6c-2.4-0.6-3.4-1.8-3.2-3.6C118.6,155.6,120.2,154.5,122.7,154.6L122.7,154.6z"/>
	<path class="st2" d="M55.4,150.6c1.4,0,2.7,0,4.1,0c0.6,0,0.9,0.1,0.8,0.8c0,0.8-0.1,1.5-0.4,2.2c-1.7,3.6-3.4,7.3-5.1,11
		c-0.3,0.7-2,1.3-2.7,0.8c-0.5-0.4,0-0.7,0.1-1c1.6-3.4,3.2-6.9,4.8-10.3c0.6-1.2,0.6-1.2-0.8-1.2c-1.7,0-3.4-0.1-5,0
		c-0.9,0-0.9-0.5-0.9-1.1s0-1.2,0.9-1.1C52.6,150.7,54,150.6,55.4,150.6L55.4,150.6z"/>
	<path class="st2" d="M15.5,154.8c1.7-0.2,2.9,0.5,3.4,2.1c0.6,1.8,1.2,3.5,2,5.3c0.7-2.2,1.4-4.4,2.1-6.5c0.1-0.4,0.2-0.9,0.9-0.9
		c1.9-0.1,1.9-0.1,1.3,1.7c-1,2.7-2,5.4-2.9,8.2c-0.3,1.1-1,0.9-1.8,0.9c-0.8,0.1-1.2-0.1-1.5-0.9C17.9,161.3,16.7,158.1,15.5,154.8
		L15.5,154.8z"/>
	<path class="st2" d="M148.1,165.4c-1.1,0.3-1.3-0.3-1.2-1.2c0.1-2.1,0-4.2,0-6.4c0-0.7-0.1-1.2-1-1c-0.9,0.1-0.9-0.4-0.9-1.1
		c0-0.8,0.1-1.1,1-1c0.7,0.1,0.9-0.2,0.9-0.9c0-2.5,1.8-3.8,4.2-3.3c0.9,0.2,0.6,0.8,0.6,1.3c0.1,0.6-0.2,0.8-0.8,0.7
		c-0.4,0-0.9,0-1.2,0.3c-0.4,0.4-0.5,1-0.4,1.6c0.1,0.6,0.7,0.3,1,0.3c0.7,0,1.3-0.2,1.3,1c0,0.9-0.3,1.2-1.2,1.1
		c-0.9-0.1-1.2,0.2-1.2,1.2c0.1,2.1,0,4.2,0,6.2C149.4,165.2,149.1,165.7,148.1,165.4L148.1,165.4z"/>
	<path class="st2" d="M184.8,158.1c0-2.2,0.1-4.4,0-6.6c0-1.2,0.8-0.9,1.4-0.9c0.6,0,1.3-0.2,1.2,0.9c-0.1,4.4-0.1,8.7,0,13.1
		c0,1.2-0.8,0.9-1.4,0.9c-0.6,0-1.3,0.2-1.2-0.9C184.9,162.4,184.8,160.3,184.8,158.1L184.8,158.1z"/>
	<path class="st2" d="M113.4,156.2c0.9-0.9,1.8-1.4,2.9-1.6c0.4-0.1,1.1-0.3,1,0.5c-0.1,0.6,0.6,1.7-0.7,1.7c-0.6,0-1.2,0.1-1.7,0.4
		c-0.9,0.5-1.6,1.2-1.6,2.4c0.1,1.6,0,3.3,0,4.9c0,1.1-0.7,0.8-1.3,0.8s-1.3,0.3-1.3-0.8c0.1-3,0-6,0-9c0-0.8,0.3-0.9,1-0.9
		C112.6,154.8,113.7,154.5,113.4,156.2L113.4,156.2z"/>
	<path class="st2" d="M40.5,156.4c1-1.2,2-1.7,3.2-1.8c0.5-0.1,1-0.1,0.8,0.6c-0.1,0.6,0.6,1.6-0.6,1.7c-0.6,0.1-1.2,0.1-1.7,0.4
		c-1,0.6-1.8,1.3-1.7,2.6c0.1,1.6,0,3.2,0,4.8c0,1.1-0.8,0.8-1.3,0.8c-0.6,0-1.2,0.2-1.2-0.8c0-3,0-6.1,0-9.1c0-0.8,0.4-0.9,1-0.8
		c0.5,0.1,1.5-0.6,1.5,0.7C40.5,155.6,40.5,155.8,40.5,156.4L40.5,156.4z"/>
	<path class="st1" d="M12,157.9c0,1.1-0.1,2.2-0.6,3.3c-0.8,1.5-1.9,2.3-3.6,2.2c-1.7-0.1-2.9-0.9-3.5-2.5c-0.7-1.7-0.7-3.4-0.2-5.2
		c0.6-2,2.2-3.2,4-3.1c2,0.1,3.4,1.5,3.8,3.7C12,156.9,12,157.4,12,157.9L12,157.9z"/>
	<path class="st1" d="M64.2,156.2c0,0,0,0.1,0,0.1c0,0-0.1,0-0.1,0C64.1,156.3,64.1,156.2,64.2,156.2L64.2,156.2L64.2,156.2z"/>
	<path class="st1" d="M277.4,159.9c-0.2-1.1-0.1-2.4,1.6-3c1.5-0.5,2.9,0.2,3.3,1.8c0.2,0.9,0.2,1.8,0.1,2.7
		c-0.3,1.5-1.2,2.3-2.6,2.2c-1.5-0.1-2.3-1-2.3-2.6C277.4,160.8,277.4,160.5,277.4,159.9L277.4,159.9z"/>
	<path class="st1" d="M237.7,160.1c0,2.3-0.3,2.9-1.8,3.4c-1.4,0.4-2.6-0.2-3.1-1.7c-0.3-1-0.2-2.1-0.1-3.1c0.3-1.4,1.4-2.1,2.7-2
		c1.4,0.2,2.2,1,2.2,2.5C237.7,159.5,237.7,159.8,237.7,160.1L237.7,160.1z"/>
	<path class="st1" d="M192.7,160.3c0-2.6,0.3-3,1.9-3.5c0.4-0.1,0.9-0.1,1.3,0c1.3,0.4,1.7,1.4,1.8,2.6c0.1,1.4,0.2,3-1.2,3.9
		c-1,0.6-2.1,0.3-3-0.3C192.2,162.3,192.8,161.1,192.7,160.3z"/>
	<path class="st1" d="M105.6,161.3c0.3,1.1-0.2,1.6-1,1.9c-0.9,0.4-1.9,0.7-2.8,0.1c-0.7-0.4-0.6-1.4,0.2-2c0.9-0.7,2-0.9,3.1-1
		C106.1,160.2,105.5,161.1,105.6,161.3L105.6,161.3z"/>
	<path class="st1" d="M213.5,161.2c0.3,1.1-0.2,1.6-0.9,2c-0.9,0.4-1.9,0.7-2.9,0.2c-0.7-0.4-0.7-1.4,0-1.9c1-0.8,2.1-1.1,3.3-1.2
		C214,160.2,213.4,161,213.5,161.2L213.5,161.2z"/>
	<path class="st1" d="M177.7,159.1c-0.4,0-0.8,0-1.2,0c-1.2,0-1.3-0.2-0.7-1.2c0.5-0.9,1.3-1.2,2.3-1.2c0.9,0.1,1.6,0.5,1.9,1.4
		c0.3,0.7,0.3,1.1-0.7,1.1C178.8,159,178.3,159.1,177.7,159.1L177.7,159.1z"/>
	<path class="st1" d="M289.1,159.1c0.4-1.7,1-2.3,2.3-2.4c1.1-0.1,1.9,0.3,2.3,1.3c0.3,0.7,0.3,1.1-0.7,1.1
		C291.8,159,290.5,159.1,289.1,159.1L289.1,159.1z"/>
	<path class="st1" d="M28.8,159.1c0.2-1.6,0.9-2.3,2.2-2.4c1.2-0.1,2.1,0.5,2.4,1.5c0.2,0.5,0.2,0.9-0.6,0.9
		C31.5,159,30.1,159.1,28.8,159.1L28.8,159.1z"/>
	<path class="st1" d="M92.7,159.1c-0.4,0-0.8,0-1.2,0c-0.4,0-0.9,0.2-1.1-0.2s0.1-0.8,0.4-1.2c0.6-0.8,1.4-1.1,2.4-1
		c0.8,0.1,1.4,0.6,1.7,1.3c0.3,0.6,0.3,1.2-0.7,1.1C93.8,159.1,93.3,159.1,92.7,159.1L92.7,159.1z"/>
	<path class="st1" d="M141.4,159.9c0,2.1-0.6,3.1-1.9,3.5c-1.3,0.4-2.5-0.1-3.1-1.4c-0.5-1.2-0.5-2.5-0.1-3.7
		c0.4-1.1,1.2-1.6,2.3-1.6c1,0,1.8,0.4,2.3,1.4C141.4,158.7,141.4,159.4,141.4,159.9z"/>
	<path class="st1" d="M270.3,159.9c0,2.7-1.5,4-3.4,3.5c-1-0.3-1.5-0.9-1.7-1.8c-0.2-0.8-0.3-1.7-0.1-2.6c0.4-1.5,1.3-2.4,2.6-2.4
		c1.3,0,2.2,0.9,2.5,2.4C270.2,159.5,270.2,159.8,270.3,159.9L270.3,159.9z"/>
</g>
<path class="st1" d="M263.6,94.6c0.4,1.2,0.2,2.3,0.2,3.5c0.1,0.1,0.6,0,1.1-0.1c-0.5-0.4-0.5-0.9-0.2-1.7c0.4,0.6,0.6,0.9,0.8,1.3
	c0.3,0.5,0.8,0.2,1.2,0.4c-1,1.1-2.3,1.2-3.3,0.3c-1.1-1-1.3-2.6-0.3-3.7c0.8-1,2.2-1.2,3.3-0.5c1.2,0.9,1.5,2.4,0.5,3.8
	c-0.5-0.6-1.6-1-0.7-2.2c0.3-0.5,0-1.1-0.7-1.2C264.9,94.7,264.3,94.7,263.6,94.6z"/>
<path class="st1" d="M264.9,95c0.5,0,0.6,0.3,0.7,0.6c0,0.4-0.2,0.7-0.6,0.8c-0.5,0.1-0.4-0.3-0.3-0.6
	C264.7,95.6,264.4,95.1,264.9,95L264.9,95z"/>
</svg>
