<?xml version="1.0" encoding="UTF-8"?><svg id="Layer_1" xmlns="http://www.w3.org/2000/svg" viewBox="0 0 704.55 191.22"><defs><style>.cls-1{fill:#f5333f;}.cls-2{fill:#fff;}.cls-3{fill:#939598;}</style></defs><g><g><path d="M191.17,95.72c0,31.37,0,62.74,.02,94.1,0,1.05-.2,1.38-1.33,1.38-26.72-.02-53.44,0-80.15,0-24.43,0-48.86,0-73.29,0-11.75,0-23.51-.04-35.26-.01C.19,191.2,0,190.93,0,190.01,.02,127.08,.02,64.14,0,1.2,0,.31,.15,0,1.15,0,64.09,.03,127.04,.03,189.98,0c1.04,0,1.21,.29,1.21,1.26-.03,31.49-.02,62.98-.02,94.47Z"/><path class="cls-3" d="M376.95,88.86c55.4,0,110.8,0,166.21,0,1.85,0,1.61-.23,1.62,1.57,.01,1.32-.03,2.65,.02,3.97,.03,.71-.16,1.07-.93,.96-.28-.04-.56,0-.84,0-110.76,0-221.53,0-332.29,0q-1.75,0-1.75-1.69c0-1.28,.03-2.57-.01-3.85-.03-.71,.16-1.07,.93-.96,.32,.04,.64,0,.96,0,55.36,0,110.72,0,166.09,0Z"/><path class="cls-2" d="M3.42,3.52c30.69,42.18,61.38,84.35,92.15,126.65C126.34,87.89,157.03,45.72,187.73,3.52c.39,.36,.22,.74,.22,1.07,0,60.69,0,121.38,.04,182.07,0,1.12-.3,1.37-1.39,1.37-9.79-.04-19.58-.04-29.37,0-1.03,0-1.23-.28-1.22-1.26,.03-28.68,.02-57.36,.02-86.04v-1.59c-2.38,3.39-4.57,6.52-6.76,9.65-17.62,25.19-35.24,50.39-52.86,75.58q-.83,1.19-1.65,.03c-19.57-27.98-39.14-55.96-58.72-83.94-.22-.32-.46-.63-.88-1.21v1.64c0,28.56,0,57.12,.03,85.68,0,1.14-.23,1.46-1.42,1.45-9.79-.05-19.58-.04-29.37-.01-.88,0-1.23-.13-1.23-1.15,.03-60.89,.03-121.78,.03-182.67v-.58l.22-.1Z"/><path class="cls-1" d="M38.79,110.11c18.11,25.89,36.22,51.78,54.35,77.69-.44,.3-.8,.18-1.14,.18-17.4,0-34.81,0-52.21,.03-1.11,0-1.4-.29-1.4-1.4,.03-24.62,.02-49.24,.02-73.86v-2.69l.38,.04Z"/><path class="cls-1" d="M152.69,110.02v1.17c0,25.1,0,50.21,.03,75.31,0,1.21-.29,1.52-1.51,1.51-17.25-.04-34.49-.03-51.74-.03h-1.59c18.27-26.13,36.42-52.07,54.57-78.02l.24,.06Z"/></g><g><path d="M569.82,106.75c-.84-.7-1.26-1.62-1.26-2.78,0-.94,.38-1.78,1.16-2.54,.77-.76,2.18-1.69,4.24-2.79-1.52-.55-2.65-1.38-3.38-2.5s-1.1-2.47-1.1-4.04c0-2.37,1.11-4.6,3.33-6.71,2.22-2.11,5.14-3.16,8.77-3.16,1.89,0,3.54,.3,4.96,.91,1.42,.6,1.97,.91,1.64,.91h6.27v3.19h-3.79c.11,.48,.19,.89,.25,1.24s.08,.74,.08,1.18c0,2.71-1.07,5.04-3.2,6.97s-5.14,2.9-9.01,2.9c-.84,0-1.85-.1-3.03-.3-.29,0-.6,.23-.92,.69-.32,.46-.48,.85-.48,1.18,0,.61,.45,1.15,1.35,1.62,.42,.24,.93,.45,1.54,.63l3,.85c2.62,.75,4.48,1.49,5.58,2.2,1.89,1.21,2.83,2.88,2.83,5.01,0,2.38-1.26,4.36-3.77,5.94-2.51,1.58-5.63,2.37-9.35,2.37-2.44,0-4.56-.29-6.35-.88-3.1-.99-4.65-2.73-4.65-5.23,0-1.61,.83-2.93,2.47-3.93,.92-.55,2.54-1.17,4.87-1.84-.92-.33-1.6-.69-2.04-1.07Zm11.87,5.01c-.54-.51-1.28-.96-2.21-1.35-.64-.26-1.67-.62-3.09-1.09s-2.27-.7-2.54-.7c0-.28-.73,.12-2.2,1.18s-2.2,2.3-2.2,3.71c0,.88,.34,1.69,1.02,2.42,1.12,1.25,2.97,1.87,5.56,1.87,2.04,0,3.63-.37,4.77-1.1,1.15-.73,1.72-1.68,1.72-2.83,0-.9-.27-1.6-.81-2.12Zm.93-17.53c1.15-2.39,1.72-4.67,1.72-6.85,0-.99-.2-1.8-.61-2.44s-1.06-.96-1.98-.96c-1.74,0-3.14,1.28-4.19,3.84-1.05,2.56-1.58,4.85-1.58,6.86,0,1.03,.24,1.8,.72,2.33,.48,.53,1.08,.8,1.82,.8,1.59,0,2.97-1.19,4.11-3.58Z"/><path d="M594.74,108.21c1.55-5.37,2.81-9.99,3.79-13.86,1.14-4.16,1.71-6.64,1.71-7.43,0-.7-.23-1.15-.69-1.35-.46-.2-1.25-.3-2.37-.3v-1.48c2.4-.15,4.43-.34,6.08-.58,1.07-.15,2.89-.46,5.46-.94l-3.13,9.98,.25,.06c1.61-3.12,2.9-5.33,3.88-6.63,1.7-2.27,3.34-3.41,4.92-3.41,1.1,0,1.91,.37,2.43,1.1,.52,.73,.78,1.55,.78,2.45,0,1.08-.29,2.05-.87,2.92-.58,.86-1.38,1.29-2.41,1.29-.46,0-.89-.09-1.28-.28-.39-.18-.73-.46-1-.83l-.52-.66c-.09-.11-.19-.2-.29-.27s-.23-.11-.4-.11c-.71,0-1.65,.97-2.81,2.92s-2.13,3.92-2.92,5.94c-.55,1.39-1.23,3.37-2.04,5.94-.81,2.57-1.4,4.41-1.79,5.53h-6.79Z"/><path d="M637.65,83.56c2.64,1.5,3.96,4.06,3.96,7.67,0,4-1.52,7.88-4.57,11.63-3.32,4.09-7.11,6.13-11.39,6.13-2.18,0-4.25-.68-6.2-2.04-1.95-1.36-2.93-3.65-2.93-6.88,0-4.02,1.51-7.9,4.54-11.66,3.32-4.11,7.14-6.16,11.47-6.16,1.91,0,3.61,.43,5.12,1.29Zm-14.06,22.11c.46,1.04,1.32,1.57,2.59,1.57,2.35,0,4.46-2.7,6.33-8.09,1.56-4.53,2.34-8.44,2.34-11.75,0-.88-.11-1.57-.33-2.06-.42-.92-1.21-1.38-2.37-1.38-2.7,0-4.96,2.86-6.79,8.58-1.41,4.35-2.12,7.96-2.12,10.84,0,.97,.12,1.73,.36,2.28Z"/><path d="M645.1,102.35c.17-.83,.35-1.59,.55-2.28l2.93-10.7c.15-.48,.25-.89,.32-1.24,.06-.35,.1-.7,.1-1.05,0-.71-.23-1.19-.7-1.42-.47-.23-1.28-.36-2.44-.4v-1.48c3.86-.35,6.75-.69,8.68-1.02s2.98-.5,3.14-.5l-2.56,8.61-2.71,8.66c-.13,.4-.28,.94-.44,1.6-.26,.99-.38,1.72-.38,2.2s.11,.8,.34,1.02c.23,.22,.55,.33,.96,.33,.89,0,2.06-.88,3.52-2.63,1.45-1.75,2.81-4.08,4.08-7,.82-1.89,1.55-3.81,2.19-5.78,.42-1.3,1.06-3.42,1.91-6.35h6.66l-2.15,7.81c-.09,.29-.47,1.68-1.14,4.17-.67,2.49-1.08,3.97-1.22,4.47-.28,.97-.51,1.88-.72,2.71-.2,.83-.3,1.41-.3,1.72,0,.35,.09,.62,.26,.81,.17,.19,.39,.29,.65,.29,.59,0,1.38-.64,2.37-1.92,.57-.71,1.08-1.47,1.54-2.26l1.18,.72c-1.09,2.04-2.45,3.77-4.09,5.21s-3.33,2.16-5.08,2.16c-1.54,0-2.6-.42-3.2-1.27-.41-.57-.61-1.32-.61-2.25s.07-1.66,.22-2.3c.15-.63,.49-1.78,1.02-3.45l-.13-.05c-2.27,3.3-3.96,5.5-5.08,6.6-1.83,1.83-3.72,2.75-5.64,2.75-.94,0-1.76-.24-2.48-.71-1.2-.75-1.8-2.03-1.8-3.82,0-.48,.08-1.13,.25-1.95Z"/><path d="M668.84,118.33c1.28-.05,2.18-.26,2.68-.62,.5-.36,.96-1.32,1.36-2.9l6.73-24.59c.09-.33,.23-.91,.43-1.75s.29-1.36,.29-1.58c0-.68-.24-1.12-.72-1.32-.48-.2-1.26-.3-2.34-.3v-1.48l2.63-.28c.67-.07,1.78-.22,3.31-.45,1.53-.23,3.05-.49,4.56-.78l-1.86,5.75,.11,.11c1.25-1.65,2.35-2.88,3.3-3.69,1.72-1.45,3.51-2.17,5.36-2.17,1.74,0,3.2,.58,4.36,1.73,1.16,1.16,1.75,2.93,1.75,5.31,0,4.53-1.63,8.93-4.9,13.2-3.32,4.33-6.8,6.49-10.45,6.49-.86,0-1.54-.09-2.04-.28s-1.18-.52-2.06-1.02l-.99,3.71c-.31,1.12-.57,2.14-.78,3.07s-.32,1.59-.32,1.99c0,.75,.25,1.23,.74,1.43,.5,.2,1.47,.34,2.92,.41v1.49h-14.08v-1.49Zm13.82-11.92c.45,.38,1.03,.56,1.74,.56,2.29,0,4.47-2.46,6.56-7.37,1.79-4.2,2.69-7.58,2.69-10.15,0-.83-.09-1.47-.27-1.93-.33-.84-.96-1.27-1.89-1.27-1.01,0-2.08,.52-3.21,1.57-1.13,1.04-2.08,2.58-2.83,4.62-.59,1.58-1.31,3.87-2.17,6.88-.86,3.01-1.29,4.82-1.29,5.45,0,.71,.22,1.26,.67,1.64Z"/></g><g><path class="cls-2" d="M102.6,102.9v2.83h-14.55v-4.42l11.44-2.65-11.44-2.63v-4.37h14.55v2.83h-9.84c-.28,0-.68,0-1.19,0-.51,0-.9-.01-1.18-.01l12.21,2.75v2.95l-12.21,2.74c.28,0,.67,0,1.18,0s.91,0,1.19,0h9.84Z"/><path class="cls-2" d="M96.24,78.71v7.07h3.74v-8.06h2.62v11.03h-14.55v-10.67h2.58v7.7h3.09v-7.07h2.53Z"/><path class="cls-2" d="M102.6,63.58v3.04l-10.34,5.94h10.34v2.83h-14.55v-3.19l10.16-5.8h-10.16v-2.83h14.55Z"/><path class="cls-2" d="M99.61,52.23v5.36l2.99,1.01v3.18l-14.55-5.19v-3.44l14.55-5.15v3.3l-2.99,.94Zm-2.51,.85l-5.73,1.82,5.73,1.88v-3.69Z"/><path class="cls-2" d="M96.89,39.97v3.14h5.71v2.97h-14.55v-7.14c.02-1.02,.15-1.81,.38-2.35,.23-.55,.57-1.02,1.02-1.4,.37-.32,.78-.57,1.22-.75,.45-.18,.96-.28,1.53-.28,.69,0,1.37,.17,2.04,.52,.67,.35,1.14,.92,1.42,1.73,.27-.67,.65-1.15,1.15-1.43,.5-.28,1.26-.42,2.28-.42h.98c.67,0,1.12-.03,1.35-.08,.38-.08,.65-.26,.83-.55h.37v3.35c-.32,.09-.58,.16-.78,.2-.41,.08-.83,.12-1.25,.13l-1.35,.02c-.93,.01-1.55,.18-1.86,.51-.31,.33-.46,.94-.46,1.83Zm-2.65-1.85c-.28-.61-.82-.91-1.64-.91-.88,0-1.47,.29-1.78,.88-.17,.33-.26,.82-.26,1.48v3.53h3.91v-3.45c0-.68-.08-1.2-.24-1.54Z"/><path class="cls-2" d="M88.04,31.78v-3.02h14.55v3.02h-14.55Z"/><path class="cls-2" d="M102.6,14.16v3.04l-10.34,5.94h10.34v2.83h-14.55v-3.19l10.16-5.8h-10.16v-2.83h14.55Z"/><path class="cls-2" d="M88.04,11.56v-3.02h14.55v3.02h-14.55Z"/></g></g><g><path class="cls-1" d="M206.87,64.46c3.63-.03,5.99-.67,7.08-1.93,1.08-1.26,1.63-3.14,1.63-5.66V11.59c0-2.59-.62-4.29-1.86-5.11s-3.44-1.35-6.61-1.59V2.46h24.02l18.76,44.13h.79L269.32,2.46h24.03v2.42c-3.23,.25-5.43,.84-6.61,1.78-1.18,.94-1.77,3.25-1.77,6.92V55.76c0,3.51,.59,5.8,1.77,6.89,1.18,1.09,3.38,1.69,6.61,1.82v2.42h-31.65v-2.42c2.82-.09,4.95-.57,6.38-1.42,1.43-.85,2.14-2.72,2.14-5.61V10.84h-.7l-23.37,56.04h-2.56l-23.6-54.93h-.42V55.06c0,3.18,.59,5.5,1.77,6.97,1.18,1.47,3.79,2.28,7.82,2.43v2.42h-22.3v-2.42Z"/><path class="cls-1" d="M297.07,66.88v-2.42c2.73-.09,4.67-.47,5.82-1.12,1.77-.99,2.65-2.85,2.65-5.59V11.59c0-2.77-.92-4.64-2.75-5.59-1.06-.58-2.96-.96-5.73-1.11V2.46h54.93V21.69h-2.33c-1.21-6.14-3.27-10.35-6.17-12.61-2.9-2.26-8.19-3.4-15.85-3.4-2.92,0-4.77,.3-5.56,.91-.79,.6-1.19,1.81-1.19,3.61v22.06c5.43,.06,9.11-.92,11.03-2.96,1.92-2.03,3.4-5.75,4.42-11.15h2.42V50.36h-2.42c-.68-5.43-2.07-9.25-4.17-11.47-2.09-2.22-5.86-3.33-11.29-3.33v23.09c0,2.02,.52,3.39,1.56,4.12,1.04,.73,3.17,1.09,6.4,1.09,6.08,0,11.05-1.18,14.89-3.54,3.85-2.36,7.26-6.78,10.24-13.27h2.65l-3.86,19.83h-55.72Z"/><path class="cls-1" d="M360.66,64.46c3.54-.09,5.82-.77,6.84-2.02,1.02-1.26,1.54-3.11,1.54-5.56V11.73c-2.92-3.26-4.72-5.17-5.4-5.75-.68-.57-1.61-.94-2.79-1.09V2.46h20.2l32.77,39.83h.47V14.29c0-3.23-.59-5.53-1.76-6.91-1.17-1.38-3.52-2.21-7.04-2.49V2.46h20.48v2.42c-2.98,.49-4.97,1.16-5.98,1.99-1.01,.83-1.51,2.7-1.51,5.6v56.18h-2.65l-41.94-50.97h-.65V55.06c0,2.93,.4,5,1.21,6.22,1.27,1.96,3.88,3.03,7.82,3.18v2.42h-21.6v-2.42Z"/><path class="cls-1" d="M423.97,64.46c2.3-.15,4.14-1.19,5.54-3.12,.9-1.21,2.19-3.88,3.86-8.01L454.55,1.16h2.65l21.27,50.08c2.39,5.62,4.17,9.24,5.35,10.87,1.18,1.63,2.85,2.41,5.03,2.35v2.42h-30.86v-2.42c3.1-.12,5.14-.39,6.12-.79,.98-.4,1.47-1.43,1.47-3.07,0-.75-.25-1.88-.74-3.4-.31-.9-.73-1.99-1.26-3.26l-2.42-5.77h-21.4c-1.4,3.79-2.3,6.25-2.7,7.4-.84,2.45-1.26,4.24-1.26,5.35,0,1.37,.92,2.36,2.75,2.98,1.09,.34,2.72,.53,4.89,.56v2.42h-19.46v-2.42Zm35.79-20.06l-9.17-22.06h-.8l-8.6,22.06h18.57Z"/><path class="cls-1" d="M492.62,64.46c3.23-.15,5.43-.76,6.61-1.82,1.18-1.05,1.77-3.35,1.77-6.89V13.59c0-3.67-.7-6.06-2.09-7.18-.93-.74-3.03-1.25-6.28-1.53V2.46h30.67c6.36,0,11.51,.67,15.45,2,7.63,2.7,11.45,7.56,11.45,14.57,0,5.18-2,9.26-6,12.24-3.06,2.23-6.29,3.66-9.7,4.28l20.26,27.14c.53,.75,1.09,1.23,1.68,1.47,.59,.23,1.32,.38,2.19,.44v2.28h-19.89l-22.24-29.79h-.04v18.67c0,3.35,.56,5.61,1.68,6.77s3.35,1.81,6.7,1.93v2.42h-32.21v-2.42Zm37.21-33.07c2.68-1.66,4.03-5.5,4.03-11.52,0-3.69-.51-6.61-1.54-8.75-1.77-3.63-5-5.45-9.68-5.45-2.54,0-4.21,.32-5,.95-.79,.64-1.19,1.68-1.19,3.14v24.25c6.24-.09,10.7-.97,13.38-2.63Z"/><path class="cls-1" d="M563.37,64.46c2.7-.06,4.64-.39,5.82-.98,1.92-.99,2.89-2.9,2.89-5.73V11.59c0-2.8-.92-4.68-2.75-5.64-1.12-.59-3.1-.94-5.96-1.06V2.46h33.33v2.42c-2.98,.12-5.03,.46-6.14,1.02-1.86,.96-2.79,2.85-2.79,5.69V57.76c0,2.67,.75,4.45,2.23,5.35,1.49,.9,3.72,1.35,6.7,1.35v2.42h-33.33v-2.42Z"/><path class="cls-1" d="M602.38,64.46c3.54-.09,5.82-.77,6.84-2.02,1.02-1.26,1.54-3.11,1.54-5.56V11.73c-2.92-3.26-4.72-5.17-5.4-5.75-.68-.57-1.61-.94-2.79-1.09V2.46h20.2l32.77,39.83h.47V14.29c0-3.23-.59-5.53-1.76-6.91-1.17-1.38-3.52-2.21-7.04-2.49V2.46h20.48v2.42c-2.98,.49-4.97,1.16-5.98,1.99-1.01,.83-1.51,2.7-1.51,5.6v56.18h-2.65l-41.94-50.97h-.65V55.06c0,2.93,.4,5,1.21,6.22,1.27,1.96,3.88,3.03,7.82,3.18v2.42h-21.6v-2.42Z"/><path class="cls-1" d="M671.22,64.46c2.7-.06,4.64-.39,5.82-.98,1.92-.99,2.89-2.9,2.89-5.73V11.59c0-2.8-.92-4.68-2.75-5.64-1.12-.59-3.1-.94-5.96-1.06V2.46h33.33v2.42c-2.98,.12-5.03,.46-6.14,1.02-1.86,.96-2.79,2.85-2.79,5.69V57.76c0,2.67,.75,4.45,2.23,5.35,1.49,.9,3.72,1.35,6.7,1.35v2.42h-33.33v-2.42Z"/></g></svg>