<?xml version="1.0" encoding="utf-8"?>
<!-- Generator: Adobe Illustrator 26.3.1, SVG Export Plug-In . SVG Version: 6.00 Build 0)  -->
<svg version="1.1" id="Layer_1" xmlns="http://www.w3.org/2000/svg" xmlns:xlink="http://www.w3.org/1999/xlink" x="0px" y="0px"
	 viewBox="0 0 453.71 148.94" style="enable-background:new 0 0 453.71 148.94;" xml:space="preserve">
<style type="text/css">
	.st0{fill:#006937;}
	.st1{fill:#6D6E71;}
	.st2{fill:#FFD506;}
	.st3{fill:#6BCDB2;}
</style>
<g>
	<path className="st0" d="M52.55,43.11c5.25-5.52,12.24-8.27,20.99-8.27c8.74,0,15.74,2.76,20.99,8.27c5.11,5.45,7.77,12.58,7.97,21.39
		c-0.2,8.75-2.86,15.88-7.97,21.39c-5.25,5.52-12.24,8.27-20.99,8.27c-8.75,0-15.74-2.76-20.99-8.27
		c-5.25-5.52-7.94-12.65-8.07-21.39C44.61,55.76,47.3,48.63,52.55,43.11z M73.54,87.11c6.73,0,12.01-2.15,15.84-6.46
		c3.77-4.17,5.65-9.55,5.65-16.15c0-6.59-1.88-11.97-5.65-16.15c-3.9-4.37-9.18-6.52-15.84-6.46c-6.73,0-12.04,2.15-15.94,6.46
		c-3.77,4.17-5.62,9.55-5.55,16.15c0,6.59,1.85,11.98,5.55,16.15C61.5,84.96,66.81,87.11,73.54,87.11z"/>
	<path className="st0" d="M157.85,90.04c0,1.01-0.35,1.88-1.06,2.62c-0.71,0.74-1.61,1.11-2.72,1.11c-1.11,0-2.02-0.34-2.72-1.01
		s-1.06-1.58-1.06-2.72v-2.52c0-4.44-0.49-7.7-1.46-9.79c-0.98-2.08-2.32-3.75-4.04-5c-1.72-1.24-4.15-1.87-7.32-1.87h-17.05v19.17
		c0,1.01-0.37,1.88-1.11,2.62c-0.74,0.74-1.65,1.11-2.72,1.11c-1.01,0-1.88-0.37-2.62-1.11c-0.74-0.74-1.11-1.61-1.11-2.62V39.48
		c0-1.01,0.37-1.9,1.11-2.67c0.74-0.77,1.61-1.16,2.62-1.16h19.27c7.53,0,13.25,1.61,17.15,4.84c3.63,3.03,5.41,7,5.35,11.91
		c0,3.16-0.89,6.14-2.67,8.93c-1.78,2.79-4.53,4.79-8.22,6c3.97,1.01,6.86,3.9,8.68,8.68c1.21,3.1,1.78,6.53,1.72,10.29V90.04z
		 M135.35,63.7c4.64,0,8.38-0.89,11.2-2.67c2.83-1.78,4.24-4.46,4.24-8.02c0-3.3-1.11-5.78-3.33-7.47
		c-2.62-1.88-6.8-2.83-12.51-2.83h-14.53V63.7H135.35z"/>
	<path className="st0" d="M189.13,87.11c9.62,0,14.46-3.19,14.53-9.59c0-2.62-1.85-4.71-5.55-6.26c-1.61-0.67-3.48-1.28-5.6-1.82
		c-2.12-0.54-4.26-1.11-6.41-1.72c-2.15-0.61-4.31-1.29-6.46-2.07c-2.15-0.77-4.04-1.77-5.65-2.98c-3.63-2.76-5.48-6.39-5.55-10.9
		c0-4.84,1.85-8.81,5.55-11.91c3.97-3.36,9.28-5.05,15.94-5.05c6.05,0,11.5,0.91,16.35,2.72c1.55,0.54,2.35,1.65,2.42,3.33
		c0,0.81-0.29,1.58-0.86,2.32c-0.57,0.74-1.21,1.11-1.92,1.11s-1.67-0.2-2.88-0.61c-3.63-1.28-7.74-1.92-12.31-1.92
		c-4.24,0-7.74,0.81-10.49,2.42c-2.83,1.68-4.24,4-4.24,6.96c0,3.1,1.82,5.48,5.45,7.16c1.68,0.74,3.56,1.36,5.65,1.87
		c2.08,0.5,4.24,1.03,6.46,1.56c2.22,0.54,4.35,1.2,6.41,1.97c2.05,0.77,3.92,1.73,5.6,2.88c3.63,2.62,5.48,6.46,5.55,11.5
		c0,4.71-1.92,8.54-5.75,11.5c-3.9,3.03-9.05,4.54-15.44,4.54c-7,0-13.56-1.31-19.68-3.94c-0.61-0.27-1.14-0.72-1.61-1.36
		c-0.47-0.64-0.71-1.36-0.71-2.17c0-0.81,0.3-1.56,0.91-2.27s1.29-1.06,2.07-1.06c0.77,0,1.75,0.27,2.93,0.81
		c1.18,0.54,3.11,1.16,5.8,1.87C182.34,86.76,185.5,87.11,189.13,87.11z"/>
	<path className="st0" d="M261.94,87.36c0.71,0.71,1.06,1.56,1.06,2.57c0,0.94-0.35,1.75-1.06,2.42c-0.71,0.67-1.53,1.01-2.47,1.01
		h-33.2c-1.01,0-1.88-0.37-2.62-1.11c-0.74-0.74-1.11-1.61-1.11-2.62V39.48c0-1.01,0.37-1.9,1.11-2.67
		c0.74-0.77,1.61-1.16,2.62-1.16h33.2c0.94,0,1.77,0.35,2.47,1.06c0.71,0.71,1.06,1.53,1.06,2.47c0,0.94-0.35,1.77-1.06,2.47
		c-0.71,0.71-1.53,1.06-2.47,1.06H230.1v18.26h26.34c0.94,0,1.77,0.34,2.47,1.01c0.71,0.67,1.06,1.51,1.06,2.52
		c0,0.94-0.34,1.77-1.01,2.47c-0.67,0.71-1.51,1.06-2.52,1.06H230.1V86.3h29.37C260.41,86.3,261.24,86.66,261.94,87.36z"/>
	<path className="st0" d="M320.22,90.04c0,1.01-0.35,1.88-1.06,2.62c-0.71,0.74-1.61,1.11-2.72,1.11s-2.02-0.34-2.72-1.01
		c-0.71-0.67-1.06-1.58-1.06-2.72v-2.52c0-4.44-0.49-7.7-1.46-9.79c-0.98-2.08-2.32-3.75-4.04-5c-1.72-1.24-4.15-1.87-7.32-1.87
		h-17.05v19.17c0,1.01-0.37,1.88-1.11,2.62c-0.74,0.74-1.65,1.11-2.72,1.11c-1.01,0-1.88-0.37-2.62-1.11
		c-0.74-0.74-1.11-1.61-1.11-2.62V39.48c0-1.01,0.37-1.9,1.11-2.67c0.74-0.77,1.61-1.16,2.62-1.16h19.27
		c7.53,0,13.25,1.61,17.15,4.84c3.63,3.03,5.41,7,5.35,11.91c0,3.16-0.89,6.14-2.67,8.93c-1.78,2.79-4.53,4.79-8.22,6
		c3.97,1.01,6.86,3.9,8.68,8.68c1.21,3.1,1.78,6.53,1.72,10.29V90.04z M297.71,63.7c4.64,0,8.38-0.89,11.2-2.67
		c2.83-1.78,4.24-4.46,4.24-8.02c0-3.3-1.11-5.78-3.33-7.47c-2.62-1.88-6.8-2.83-12.51-2.83h-14.53V63.7H297.71z"/>
	<path className="st0" d="M352.36,35.65c9.22,0,16.55,3.1,22,9.28c2.42,2.69,4.22,5.75,5.4,9.18c1.18,3.43,1.77,6.9,1.77,10.39
		c0,3.5-0.59,6.96-1.77,10.39c-1.18,3.43-2.98,6.49-5.4,9.18c-5.45,6.19-12.78,9.28-22,9.28h-16.65c-1.01,0-1.88-0.37-2.62-1.11
		c-0.74-0.74-1.11-1.61-1.11-2.62V39.48c0-1.01,0.37-1.9,1.11-2.67c0.74-0.77,1.61-1.16,2.62-1.16H352.36z M351.45,86.3
		c6.86,0,12.38-2.02,16.55-6.05c4.1-4.04,6.16-9.28,6.16-15.74c0-6.46-2.05-11.71-6.16-15.74c-4.17-4.04-9.69-6.05-16.55-6.05
		h-11.91V86.3H351.45z"/>
	<path className="st0" d="M435.16,35.24c1.01,0,1.9,0.37,2.67,1.11c0.77,0.74,1.16,1.65,1.16,2.72v32.7c0,7.2-2.59,12.85-7.77,16.95
		c-4.44,3.63-9.79,5.45-16.04,5.45c-6.32,0-11.67-1.82-16.04-5.45c-5.11-4.17-7.67-9.82-7.67-16.95v-32.7c0-1.01,0.37-1.9,1.11-2.67
		c0.74-0.77,1.61-1.16,2.62-1.16c1.01,0,1.9,0.37,2.67,1.11c0.77,0.74,1.16,1.65,1.16,2.72v32.9c0,4.91,1.68,8.75,5.05,11.5
		c3.09,2.56,6.79,3.83,11.1,3.83c4.37,0,8.11-1.28,11.2-3.83c3.36-2.83,5.05-6.66,5.05-11.5v-32.9c0-1.01,0.37-1.9,1.11-2.67
		C433.27,35.63,434.15,35.24,435.16,35.24z"/>
</g>
<g>
	<path className="st1" d="M178.65,148.94c-2.86,0-5.09-1.29-6.7-3.87c-1.61-2.58-2.44-6.25-2.47-11.02v-4.08
		c0-4.91,0.78-8.76,2.33-11.56c1.55-2.79,3.69-4.19,6.41-4.19c2.63,0,4.64,1.19,6.02,3.56c1.38,2.37,2.09,6,2.12,10.89v3.22h-14.42
		v1.89c0,3.84,0.59,6.8,1.78,8.88c1.19,2.08,2.87,3.13,5.03,3.13c2.39,0,4.33-1.21,5.81-3.62l1.3,2.29
		C184.29,147.44,181.88,148.94,178.65,148.94z M178.23,117.43c-1.96,0-3.46,0.95-4.52,2.86c-1.05,1.91-1.63,4.7-1.74,8.37h11.91
		v-0.9C183.76,120.88,181.87,117.43,178.23,117.43z"/>
	<path className="st1" d="M195.95,148.32h-2.51v-47.53h2.51V148.32z"/>
	<path className="st1" d="M217.18,148.32c-0.22-1.07-0.37-2.62-0.45-4.64c-0.75,1.67-1.71,2.97-2.88,3.88
		c-1.17,0.92-2.45,1.38-3.82,1.38c-2.09,0-3.72-0.82-4.89-2.45c-1.17-1.63-1.75-3.95-1.75-6.96c0-3.28,0.81-5.88,2.43-7.8
		s3.86-2.89,6.72-2.91h4.17v-4.67c0-2.39-0.43-4.11-1.29-5.15c-0.86-1.04-2.12-1.56-3.78-1.56c-1.54,0-2.8,0.62-3.79,1.86
		c-0.99,1.24-1.48,2.84-1.48,4.8l-2.49-0.03c0-2.74,0.75-5.07,2.24-6.98c1.49-1.91,3.37-2.86,5.63-2.86c2.44,0,4.28,0.85,5.54,2.54
		s1.88,4.16,1.88,7.4v16.43c0,3.28,0.22,5.74,0.65,7.37v0.37H217.18z M210.34,145.62c1.46,0,2.76-0.53,3.89-1.58
		s1.95-2.46,2.48-4.21v-8.14h-3.95c-2.27,0.04-3.98,0.74-5.14,2.09c-1.15,1.35-1.73,3.17-1.73,5.46
		C205.9,143.5,207.38,145.62,210.34,145.62z"/>
	<path className="st1" d="M235.15,145.72c1.73,0,3.06-0.67,3.99-2c0.93-1.34,1.43-3.26,1.5-5.76h2.4c-0.12,3.42-0.91,6.11-2.38,8.06
		c-1.47,1.95-3.3,2.92-5.52,2.92c-2.89,0-5.06-1.27-6.54-3.82c-1.47-2.55-2.22-6.33-2.25-11.34v-4.08c0-5.12,0.74-8.97,2.21-11.57
		s3.66-3.9,6.56-3.9c2.41,0,4.31,1.05,5.7,3.14c1.39,2.09,2.13,5.02,2.22,8.77h-2.4c-0.08-2.76-0.58-4.9-1.53-6.42
		c-0.94-1.52-2.27-2.27-3.99-2.27c-2.15,0-3.73,1-4.74,3c-1.01,2-1.51,5.07-1.51,9.21v3.8c0,4.29,0.51,7.4,1.53,9.35
		C231.42,144.74,233,145.72,235.15,145.72z"/>
	<path className="st1" d="M257.84,148.94c-2.86,0-5.09-1.29-6.71-3.87c-1.61-2.58-2.44-6.25-2.47-11.02v-4.08
		c0-4.91,0.78-8.76,2.33-11.56c1.55-2.79,3.69-4.19,6.41-4.19c2.63,0,4.64,1.19,6.02,3.56c1.38,2.37,2.09,6,2.12,10.89v3.22h-14.42
		v1.89c0,3.84,0.59,6.8,1.78,8.88c1.19,2.08,2.87,3.13,5.03,3.13c2.39,0,4.33-1.21,5.81-3.62l1.3,2.29
		C263.48,147.44,261.07,148.94,257.84,148.94z M257.41,117.43c-1.96,0-3.46,0.95-4.52,2.86c-1.05,1.91-1.63,4.7-1.74,8.37h11.91
		v-0.9C262.94,120.88,261.06,117.43,257.41,117.43z"/>
	<path className="st1" d="M284.49,140.07c0-1.44-0.43-2.7-1.3-3.78s-2.34-2.26-4.41-3.55s-3.52-2.36-4.34-3.21
		c-0.82-0.86-1.43-1.79-1.82-2.8s-0.58-2.21-0.58-3.59c0-2.58,0.67-4.71,2.02-6.39c1.35-1.68,3.09-2.52,5.23-2.52
		c2.3,0,4.14,0.9,5.52,2.69c1.38,1.79,2.06,4.17,2.06,7.12h-2.49c0-1.9-0.47-3.47-1.41-4.72c-0.94-1.25-2.17-1.87-3.68-1.87
		c-1.47,0-2.63,0.52-3.49,1.55c-0.86,1.03-1.29,2.37-1.29,4.02c0,1.34,0.33,2.43,0.99,3.28c0.66,0.85,2.08,1.99,4.26,3.43
		c2.26,1.36,3.81,2.49,4.66,3.37c0.85,0.89,1.5,1.87,1.93,2.96s0.65,2.37,0.65,3.85c0,2.76-0.7,4.96-2.09,6.59
		c-1.39,1.63-3.22,2.45-5.49,2.45c-2.41,0-4.35-0.91-5.84-2.72c-1.49-1.81-2.23-4.16-2.23-7.02h2.51c0.07,2.07,0.58,3.68,1.51,4.82
		c0.93,1.14,2.28,1.71,4.05,1.71c1.52,0,2.75-0.51,3.68-1.54C284.03,143.14,284.49,141.77,284.49,140.07z"/>
	<path className="st1" d="M298.12,106.29v8.54h4.15v3.09h-4.15v22.25c0,1.84,0.2,3.2,0.59,4.1c0.4,0.9,1.06,1.35,1.98,1.35
		c0.4,0,1-0.1,1.79-0.31l0.07,3.09c-0.57,0.35-1.38,0.53-2.44,0.53c-2.92,0-4.41-2.76-4.49-8.29v-22.71h-3.75v-3.09h3.75v-8.54
		H298.12z"/>
	<path className="st1" d="M318.72,118.05c-0.6-0.14-1.12-0.22-1.57-0.22c-1.38,0-2.53,0.65-3.46,1.95s-1.6,3.11-1.98,5.42v23.12h-2.49
		v-33.48h2.44l0.04,5.01c1.18-3.75,3.04-5.63,5.56-5.63c0.66,0,1.16,0.13,1.5,0.4L318.72,118.05z"/>
	<path className="st1" d="M337.43,148.32c-0.22-1.07-0.37-2.62-0.45-4.64c-0.75,1.67-1.71,2.97-2.88,3.88
		c-1.17,0.92-2.45,1.38-3.82,1.38c-2.09,0-3.72-0.82-4.89-2.45c-1.17-1.63-1.75-3.95-1.75-6.96c0-3.28,0.81-5.88,2.43-7.8
		s3.86-2.89,6.72-2.91h4.17v-4.67c0-2.39-0.43-4.11-1.29-5.15c-0.86-1.04-2.12-1.56-3.78-1.56c-1.54,0-2.8,0.62-3.79,1.86
		c-0.99,1.24-1.48,2.84-1.48,4.8l-2.49-0.03c0-2.74,0.75-5.07,2.24-6.98s3.37-2.86,5.63-2.86c2.44,0,4.28,0.85,5.54,2.54
		s1.88,4.16,1.88,7.4v16.43c0,3.28,0.22,5.74,0.65,7.37v0.37H337.43z M330.59,145.62c1.46,0,2.76-0.53,3.89-1.58
		s1.96-2.46,2.48-4.21v-8.14h-3.95c-2.27,0.04-3.98,0.74-5.13,2.09c-1.15,1.35-1.73,3.17-1.73,5.46
		C326.15,143.5,327.63,145.62,330.59,145.62z"/>
	<path className="st1" d="M350.11,114.83l0.07,5.32c0.72-1.82,1.63-3.26,2.75-4.33c1.11-1.07,2.38-1.61,3.8-1.61
		c4.23,0,6.4,3.89,6.5,11.67v22.44h-2.47v-22.06c-0.01-2.99-0.4-5.2-1.14-6.62c-0.75-1.42-1.92-2.14-3.52-2.14
		c-1.3,0-2.47,0.68-3.51,2.03c-1.04,1.35-1.83,3.2-2.37,5.55v23.24h-2.49v-33.48H350.11z"/>
	<path className="st1" d="M375.11,106.29v8.54h4.15v3.09h-4.15v22.25c0,1.84,0.2,3.2,0.59,4.1c0.4,0.9,1.06,1.35,1.98,1.35
		c0.4,0,1-0.1,1.79-0.31l0.07,3.09c-0.57,0.35-1.38,0.53-2.44,0.53c-2.92,0-4.41-2.76-4.49-8.29v-22.71h-3.75v-3.09h3.75v-8.54
		H375.11z"/>
</g>
<path className="st2" d="M9.81,50.88c-6.73-4.99-1.98-16.79,2.7-23.45s13.92-14.32,20.46-9.47s2.36,16.25-2.32,22.91
	S16.54,55.87,9.81,50.88 M11,47.88c4.99,4.38,12.94-1.57,17.05-6.5s8.12-13.64,3.27-17.89s-12.61,1.17-16.71,6.1
	S6.01,43.51,11,47.88"/>
<path className="st0" d="M6.88,55.2c-11.3-5.93-6.57-24.46-0.85-35.34S24.18-4.38,35.16,1.39s7.03,23.58,1.31,34.46
	S18.18,61.14,6.88,55.2 M8.07,50.5c8.51,5.4,19.35-5.13,24.55-13.33s9.47-21.98,1.19-27.23S14.89,14.41,9.68,22.61
	S-0.45,45.1,8.07,50.5"/>
<path className="st3" d="M8,50.34c-7.46-5.38-2.2-18.12,2.99-25.3S26.4,9.59,33.65,14.82s2.62,17.54-2.57,24.72S15.46,55.73,8,50.34
	 M9.32,47.11c5.53,4.72,14.33-1.69,18.88-7.02s8.99-14.72,3.62-19.31s-13.96,1.26-18.51,6.58S3.8,42.39,9.32,47.11"/>
<g>
	<path d="M445.94,37.1h-1.46v4.91h-1.2V37.1h-1.43v-0.99h4.09V37.1z"/>
	<path d="M448.18,36.11l1.11,4.27l1.11-4.27h1.56v5.9h-1.2v-1.6l0.11-2.46l-1.18,4.06h-0.81l-1.18-4.06l0.11,2.46v1.6h-1.19v-5.9
		H448.18z"/>
</g>
</svg>
