<svg id="Layer_19" data-name="Layer 19" xmlns="http://www.w3.org/2000/svg" viewBox="0 0 249.19 228.05"><defs><style>.cls-3{stroke-miterlimit:10;stroke:#2b673c;stroke-width:3px;fill:#fff}</style></defs><circle cx="113.74" cy="113.62" r="113.26" style="fill:#e1f5f0"/><circle class="cls-3" cx="175.86" cy="104.62" r="71.14"/><path class="cls-3" d="M88.65 19.97c-1 0-1.8.55-1.84 1.88l-1.46 45.96s.02.06.02.1c0 .79-1.09 1.42-2.44 1.42s-2.44-.63-2.44-1.42c0-.02.02-.04.02-.06h-.02l-.69-45.99c-.02-1.32-.97-1.88-2.05-1.88s-1.97.55-2.01 1.88l-1.46 45.99h-.02v.06c0 .76-1.03 1.38-2.32 1.41-1.29-.04-2.33-.65-2.33-1.41 0-.02.02-.04.02-.06h-.02l-1.32-45.99c-.04-1.32-.93-1.88-2.01-1.88s-2.03.55-2.05 1.88l-.82 45.99v.06c0 .79-1.09 1.42-2.44 1.42s-2.44-.63-2.44-1.42c0-.04.02-.06.02-.1l-1.33-45.96c-.04-1.32-.85-1.88-1.83-1.88s-1.87.55-1.9 1.88l-1.45 55.97c-.13 5.38 1.5 9.56 6.25 12.44 1.56.94 5.55 1.72 7.07 2.3l-.52 34.51-1.29 54.15c0 4.44 3.61 8.05 8.05 8.05h.68c4.45 0 8.05-3.6 8.05-8.05l-1.36-58.9-.45-29.76c1.53-.58 5.51-1.36 7.07-2.3 4.76-2.88 6.38-7.06 6.26-12.44l-1.32-55.97c-.04-1.32-.91-1.88-1.9-1.88Z"/><circle cx="175.86" cy="104.62" r="42" style="stroke:#fff;stroke-width:4px;fill:#e1f5f0;stroke-miterlimit:10"/><path d="M133.86 104.62c0 23.2 18.81 42 42 42s42-18.81 42-42-18.81-42-42-42" style="stroke:#2b673c;stroke-width:3px;stroke-miterlimit:10;fill:none"/><path class="cls-3" d="M139.81 20.07h-.88c-12.62 0-16.98 35.09-16.98 58.94s10.94 24.47 10.94 24.47l-.08 4.25-1.94 73.48c0 4.44 3.6 8.05 8.05 8.05h.88c4.45 0 8.05-3.6 8.05-8.05V28.12c0-4.44-3.6-8.05-8.05-8.05Z"/></svg>