<svg id="Layer_19" data-name="Layer 19" xmlns="http://www.w3.org/2000/svg" viewBox="0 0 237.43 228.89"><defs><style>.cls-1,.cls-3{fill:none}.cls-1,.cls-3,.cls-4{stroke:#2b673c;stroke-width:3px}.cls-1,.cls-4{stroke-miterlimit:10}.cls-1,.cls-3{stroke-linecap:round}.cls-3{stroke-linejoin:round}.cls-4{fill:#fff}</style></defs><circle cx="113.66" cy="114.44" r="113.26" style="fill:#e1f5f0"/><rect className="cls-4" x="65.16" y="64.39" width="169.53" height="106.38" rx="3.81" ry="3.81"/><rect className="cls-4" x="71.09" y="57.61" width="157.66" height="106.38" rx="3.37" ry="3.37"/><path style="stroke-miterlimit:10;stroke:#2b673c;stroke-width:3px;fill:none" d="M149.92 57.61v106.81"/><path className="cls-1" d="M82.11 105.93h16.1M82.11 115.08h30.51M82.11 124.24h55.52M82.11 133.39h55.52M82.11 142.55h55.52M82.11 151.7h55.52M161.79 105.93h16.1M161.79 115.08h30.51M161.79 124.24h55.52M161.79 133.39h55.52M161.79 142.55h55.52M161.79 151.7h55.52"/><path className="cls-3" d="M82.11 69.48h55.94v23.73H82.11zM192.3 69.48h25.43v23.73H192.3z"/></svg>