<svg id="Layer_19" data-name="Layer 19" xmlns="http://www.w3.org/2000/svg" viewBox="0 0 235.07 228.63"><defs><style>.cls-1{fill:none;stroke-linecap:round;stroke:#2b673c;stroke-miterlimit:10;stroke-width:3px}</style></defs><circle cx="113.75" cy="114.45" r="113.26" style="fill:#e1f5f0"/><rect x="91.75" y="68.45" width="141" height="90" rx="14.25" ry="14.25" style="fill:#fff;stroke:#2b673c;stroke-miterlimit:10;stroke-width:3px"/><path className="cls-1" d="M133.75 131.4h83.65M181.75 143.4h35.65M133.75 121.4v-2.95M139.75 121.4v-2.95M145.75 121.4v-2.95M151.75 121.4v-2.95M163.75 121.4v-2.95M169.75 121.4v-2.95M175.75 121.4v-2.95M181.75 121.4v-2.95M193.75 121.4v-2.95M199.75 121.4v-2.95M205.75 121.4v-2.95M211.75 121.4v-2.95M217.75 121.4v-2.95"/><circle className="cls-1" cx="118.75" cy="94.45" r="15"/><path d="M126.75 91.95h-5.5v-5.5c0-.28-.22-.5-.5-.5h-4c-.28 0-.5.22-.5.5v5.5h-5.5c-.28 0-.5.22-.5.5v4c0 .28.22.5.5.5h5.5v5.5c0 .28.22.5.5.5h4c.28 0 .5-.22.5-.5v-5.5h5.5c.28 0 .5-.22.5-.5v-4c0-.28-.22-.5-.5-.5Z" style="fill:#2b673c"/></svg>