<svg id="Layer_19" data-name="Layer 19" xmlns="http://www.w3.org/2000/svg" viewBox="0 0 237.46 228.51"><defs><style>.cls-2{fill:#fff;stroke:#2b673c;stroke-linecap:round;stroke-linejoin:round;stroke-width:3px}</style></defs><circle cx="114.1" cy="114.22" r="113.26" style="fill:#e1f5f0"/><path d="m176.1 146.22-23 26 52.5 3.5 13 6c14-6 17-31 17-31l-59.5-4.5Z" style="fill:#fff"/><path className="cls-2" d="m120.98 141.55-24.6-19.93s-5.88-2.94-11.76 1.47 2.94 16.17 2.94 16.17 20.58 26.46 27.92 30.86c7.35 4.41 24.97 18.76 61.87 14.04 21.62-2.76 18.96-15.51 41.01-2.28"/><path className="cls-2" d="M235.27 150.27s-35.27-32.33-67.61-22.05-5.65 8.27-40.3 10.01c0 0-7.91.85-7.91 7.91 0 7.06 1.18 10.74 10.74 10.74h40.13M140.62 120.65c-27.92 0-38.36-33.94-38.36-33.94V47.6s35.42-12.7 38.36-12.7h-.14c2.94 0 38.36 12.7 38.36 12.7v39.12s-10.43 33.94-38.36 33.94h.14Z"/><path style="stroke:#2b673c;stroke-linecap:round;stroke-linejoin:round;fill:none;stroke-width:5px" d="m122.84 77.78 10.69 10.03 23.52-23.52"/></svg>