<svg data-name="Layer 19" xmlns="http://www.w3.org/2000/svg" viewBox="0 0 227.33 228.38"><circle cx="113.49" cy="113.99" r="113.26" style="fill:#e1f5f0"/><path d="M156.85 192.99h25.61c11.1 0 20.1-9 20.1-20.1v-57.25h11.77c7.92 0 11.89-9.58 6.29-15.18l-71.48-71.48c-7.22-7.22-18.92-7.22-26.14 0L96.26 55.72V40.9c0-4.62-3.75-8.37-8.37-8.37H77.22c-4.22 0-7.63 3.42-7.63 7.63v42.23l-18.24 18.24c-5.54 5.54-1.62 15.01 6.22 15.01h12.02v58.55c0 10.38 8.42 18.8 18.8 18.8h68.46Z" style="fill:#fff;stroke:#2b673c;stroke-miterlimit:10;stroke-width:3.24px"/><path d="M134.24 162.21c-4.86 0-9.37-2.38-12.07-6.36l-24.76-36.51c-4.51-6.64-2.77-15.72 3.88-20.23 2.41-1.63 5.23-2.5 8.14-2.5 4.86 0 9.37 2.38 12.08 6.38l14.01 20.67c7.41-10.34 17.79-24.49 28.36-37.8 22.69-28.56 49.09-52.69 57.66-52.69 1.54 0 2.46.66 2.97 1.22 2.5 2.62.04 5.36-4.85 10.82-7.16 7.99-22.06 24.62-42.42 59.58-19.98 34.32-30.74 51.35-30.84 51.52l-.06.09-.06.08c-2.43 3.17-6.12 5.21-10.14 5.6-.57.08-1.23.12-1.9.12Z" style="fill:#2b673c"/><path d="M221.54 35.52c.54 0 .95.15 1.22.44 2.86 3-15.48 12.54-47.56 67.64-20.19 34.68-30.8 51.44-30.8 51.44-2.13 2.78-5.25 4.37-8.5 4.69-.55.08-1.11.11-1.67.11-3.92 0-7.77-1.86-10.12-5.33L99.35 118c-3.77-5.56-2.3-13.18 3.25-16.95 2.09-1.41 4.46-2.09 6.82-2.09 3.92 0 7.78 1.87 10.13 5.34l15.91 23.47c7.7-10.81 18.87-26.12 30.25-40.45 25.08-31.58 49.44-51.8 55.81-51.8m0-4.71c-4.67 0-12.76 5.14-24.04 15.27-11.32 10.17-23.92 23.78-35.46 38.32-9.69 12.2-19.22 25.1-26.46 35.15l-12.12-17.87a16.923 16.923 0 0 0-14.03-7.41c-3.39 0-6.66 1-9.47 2.9-7.72 5.24-9.74 15.78-4.51 23.5l24.76 36.51c3.14 4.63 8.38 7.4 14.02 7.4.74 0 1.48-.05 2.22-.14 4.63-.48 8.88-2.85 11.69-6.51l.13-.17.11-.18c.11-.17 10.89-17.23 30.89-51.59 20.23-34.76 35.03-51.27 42.13-59.2 2.26-2.52 3.76-4.19 4.75-5.64 3-4.36 1.07-7.28.05-8.38-1.16-1.26-2.82-1.95-4.68-1.95Z" style="fill:#fff"/></svg>